<?xml version="1.0" standalone="no"?>
<!DOCTYPE svg PUBLIC "-//W3C//DTD SVG 1.1//EN" "http://www.w3.org/Graphics/SVG/1.1/DTD/svg11.dtd" >
<svg xmlns="http://www.w3.org/2000/svg">
<metadata>Generated by IcoMoon</metadata>
<defs>
<font id="admin-ui" horiz-adv-x="1024">
<font-face units-per-em="1024" ascent="960" descent="-64" />
<missing-glyph horiz-adv-x="1024" />
<glyph unicode="&#x20;" horiz-adv-x="512" d="" />
<glyph unicode="&#xe900;" glyph-name="accesibility-sign" d="M443.757 55.831c-128.904 0-233.769 104.865-233.769 233.769 0 79.192 40.78 153.42 107.157 196.363l-23.737 123.595c-124.114-58.321-203.262-181.839-203.262-319.947 0-194.968 158.632-353.611 353.611-353.611 95.478 0 187.474 39.19 253.98 107.871l-51.14 129.64c-41.234-71.665-118.588-117.679-202.84-117.679zM929.279 25.757l-161.887 410.515c-7.202 29.36-33.351 49.907-63.587 49.95l-174.194 0.227-12.177 63.392h187.722c36.216 0 65.663 29.447 65.663 65.631 0 36.206-29.468 65.653-65.663 65.653h-212.952l-10.836 56.428 5.872 6.067c23.229 23.986 36.022 55.509 36.022 88.751 0 70.378-57.25 127.628-127.639 127.628-70.378 0-127.617-57.25-127.617-127.628 0-50.772 30.117-96.711 76.737-117.020l7.84-3.406 58.31-303.488c0.227-1.060 0.443-1.882 0.67-2.725l1.903-6.553c0.335-0.941 0.681-1.947 1.071-2.909l0.952-2.174c0.595-1.309 1.125-2.455 1.698-3.558l1.071-1.936c0.649-1.135 1.352-2.325 2.087-3.45l1.103-1.655c0.8-1.146 1.665-2.303 2.563-3.417l0.995-1.254c1.006-1.19 2.055-2.336 3.125-3.45l0.833-0.865c1.438-1.46 2.736-2.617 4.066-3.742l0.984-0.876c1.146-0.93 2.747-2.12 4.391-3.255l1.633-1.027c1.027-0.66 2.174-1.395 3.396-2.055l1.417-0.725c1.849-0.93 2.931-1.492 4.044-1.99l1.957-0.8c1.503-0.595 2.617-1.017 3.763-1.395l2.239-0.692c1.33-0.4 2.66-0.714 4.001-1.038l2.001-0.443c1.546-0.292 3.179-0.541 4.823-0.714l1.276-0.195c1.817-0.184 3.796-0.314 5.796-0.335l0.93 0.022 182.553-0.227 148.921-377.413c9.971-25.24 33.956-41.569 61.089-41.569 8.208 0 16.319 1.568 24.094 4.628 33.643 13.226 50.221 51.421 36.941 85.086z" />
<glyph unicode="&#xe901;" glyph-name="access-key-filled-circular-tool" d="M903.709 873.371c-55.898 55.866-130.177 86.629-209.213 86.629-79.015 0-153.315-30.774-209.171-86.629-84.133-84.144-109.672-209.829-65.083-320.191l1.327-3.26-379.986-379.986c-4.97-4.98-7.762-11.723-7.773-18.774l0.032-188.602c-0.011-14.654 11.872-26.547 26.547-26.547h120.546c0.096-0.011 0.159-0.011 0.212 0 14.665 0 26.006 11.872 26.006 26.547 0.011 1.147 0.191 156.342 0.191 156.342l158.126 0.074c0 0 0.021 0 0.032 0 7.019 0 13.773 2.782 18.764 7.741 4.98 4.98 7.784 11.723 7.773 18.785l0.042 118.284 149.185 149.057c47.764-28.607 101.251-43.622 155.991-43.622 77.794 0 151.096 30.487 206.463 85.832 115.289 115.3 115.289 302.957-0.011 418.32zM873.711 679.46l-41.297-41.297c-8.293-8.293-21.747-8.293-30.030 0l-133.915 133.915c-8.283 8.293-8.283 21.737 0 30.030l41.307 41.297c8.283 8.293 21.747 8.293 30.041 0l133.893-133.904c8.315-8.304 8.315-21.747 0-30.041z" />
<glyph unicode="&#xe902;" glyph-name="acrobat-reader-file" d="M525.017 412.685c-41.903 33.679-77.366 65.267-101.817 87.871-8.404-36.054-20.091-82.824-29.382-119.438 38.356 13.809 82.729 23.638 132.212 29.329l-2.872 2.143 1.858 0.095zM868.856 780.5l-171.761 171.772c-4.952 4.952-11.656 7.728-18.666 7.728h-504.62c-14.58 0-26.394-11.814-26.394-26.394v-971.212c0-14.58 11.814-26.394 26.394-26.394h676.381c14.58 0 26.394 11.814 26.394 26.394v799.451c0 7.010-2.777 13.704-7.728 18.655zM762.521 345.602l-0.391-2.207c-7.306-28.864-26.953-45.239-53.928-45.239-17.082 0-31.81 6.926-34.587 8.319l-1.415 0.781c-29.762 18.634-60.347 39.496-91.091 62.184-56.641-2.967-136.626-12.922-201.322-43.191l-3.537-13.672c-21.073-77.588-62.385-85.96-79.171-85.96-3.822 0-6.556 0.454-7.464 0.676l-2.354 0.633c-11.128 4.044-18.951 11.392-23.079 21.411-8.298 20.292 2.143 44.088 4.318 48.649l3.421 5.215c18.106 20.725 41.291 38.957 68.93 54.234 12.659 49.304 34.407 135.084 44.036 179.669-11.159 10.969-17.726 17.8-19.12 19.246-26.373 29.287-36.202 55.174-29.561 77.26 6.292 21.010 25.739 31.24 36.244 33.974 16.681 4.54 34.46-0.095 45.503-12.215 15.657-17.219 21.274-50.455 16.692-98.787-0.106-1.13-0.264-2.428-0.486-3.917 30.247-28.833 89.581-83.162 161.161-137.111 10.853 0.37 21.77 0.56 32.454 0.56 35.854 0 59.851-1.985 64.296-2.386 0.496 0 37.722-1.087 58.373-25.306 9.924-11.698 14.105-26.489 12.078-42.822zM655.108 724.123c-3.558 0-6.947 1.404-9.46 3.917-2.502 2.513-3.927 5.923-3.927 9.47l0.021 159.694 173.091-173.091-159.726 0.011z" />
<glyph unicode="&#xe903;" glyph-name="add-button-circle" d="M512 960c-282.762 0-512-229.238-512-512s229.238-512 512-512 512 229.238 512 512-229.238 512-512 512zM879.587 350.824h-270.41v-270.41c0-8.979-7.277-16.246-16.235-16.246h-161.861c-8.979 0-16.246 7.277-16.246 16.246v270.41h-270.421c-8.979 0-16.246 7.277-16.246 16.235v161.861c0 8.979 7.277 16.246 16.246 16.246h270.41v270.421c0 8.979 7.277 16.246 16.246 16.246h161.84c8.99 0 16.246-7.277 16.246-16.246v-270.41h270.41c8.99 0 16.246-7.277 16.246-16.246v-161.84c0.021-8.99-7.245-16.267-16.224-16.267z" />
<glyph unicode="&#xe904;" glyph-name="add-filled-cross-sign" d="M1002.326 577.623h-360.703v360.703c0 11.964-9.71 21.674-21.674 21.674h-215.897c-11.964 0-21.674-9.71-21.674-21.674v-360.703h-360.703c-11.964 0-21.674-9.71-21.674-21.674v-215.897c0-11.964 9.71-21.674 21.674-21.674h360.703v-360.703c0-11.964 9.71-21.674 21.674-21.674h215.897c11.964 0 21.674 9.71 21.674 21.674v360.703h360.703c11.964 0 21.674 9.71 21.674 21.674v215.897c0 11.964-9.688 21.674-21.674 21.674z" />
<glyph unicode="&#xe905;" glyph-name="airplane-filled-shape" d="M748.093 521.854c87.414 91.563 331.409 359.269 264.285 426.438-7.766 7.766-18.508 11.709-31.901 11.709-66.43 0-213.615-103.012-394.548-275.994l-414.512 142.917c-8.548 2.922-18.269 0.673-24.656-5.713l-126.462-126.462c-5.463-5.442-7.962-13.229-6.702-20.919 1.303-7.592 6.213-14.131 13.099-17.476l363.647-177.609c-73.859-82.82-141.179-164.249-192.001-232.167l-89.988 62.096c-9.265 6.365-22.462 5.181-30.467-2.802l-70.85-70.839c-9.265-9.298-9.265-24.439 0.022-33.78l98.732-98.743c-10.568-23.244-18.052-48.997-3.139-63.91 3.823-3.845 10.829-8.374 22.473-8.374 10.612 0 24.221 3.802 41.415 11.546l98.797-98.786c4.518-4.497 10.514-6.984 16.879-6.984 6.376 0 12.371 2.487 16.901 7.006l70.85 70.839c8.124 8.146 9.287 20.952 2.748 30.456l-62.085 89.988c67.896 50.789 149.315 118.098 232.189 191.99l177.609-363.636c3.378-6.908 9.928-11.807 17.607-13.121 1.293-0.217 2.552-0.293 3.845-0.293 6.311 0 12.48 2.542 16.944 7.017l126.451 126.462c6.408 6.387 8.646 16.064 5.702 24.667l-142.884 414.479z" />
<glyph unicode="&#xe906;" glyph-name="airplane-silhouette" d="M1007.34 466.503c-5.858 2.607-144.973 63.783-289.987 64.001v18.81l-8.444 1.599c-28.126 5.359-64.458 7.956-111.040 7.956-3.272 0-6.564-0.021-9.857-0.042l-104.144 359.596c42.491 3.5 50.415 9.317 50.415 19.568 0 7.686 0 22.009-115.787 22.009s-115.777-14.323-115.777-22.009c0-10.127 10.158-13.928 23.816-16.296v-380.981c-8.953-0.644-22.029-1.309-34.794-1.963-17.335-0.893-33.943-1.745-44.329-2.659l-51.589 103.396c-2.804 7.904-10.397 13.336-18.841 13.336h-152.17c-6.232 0-11.986-2.815-15.808-7.759-3.749-4.871-5.069-11.311-3.511-17.241l56.512-142.044c-20.025-11.508-29.798-23.847-29.798-37.515 0-13.689 9.763-26.028 29.788-37.536l-56.107-140.808-0.415-1.236c-1.558-6.003-0.28-12.297 3.542-17.262 3.822-4.913 9.576-7.727 15.787-7.727h152.16c8.444 0 16.037 5.432 18.841 13.326l51.589 103.417c10.449-0.935 27.191-1.786 44.661-2.7 12.63-0.644 25.561-1.319 34.452-1.953v-381.48c-13.658-2.378-23.816-6.201-23.816-16.296 0-7.686 0-22.009 115.787-22.009s115.787 14.323 115.787 22.009c0 8.932-3.874 15.704-50.571 19.557l104.279 360.126c3.292-0.031 6.585-0.042 9.857-0.042 46.552 0 82.883 2.607 111.040 7.977l8.444 1.589v18.799c145.014 0.218 284.118 61.404 290.018 64.021 7.167 3.241 11.82 10.386 11.82 18.238 0.010 7.852-4.591 14.987-11.809 18.228z" />
<glyph unicode="&#xe907;" glyph-name="alarm-bell-outline" d="M908.805 327.416c-12.419 45.141-25.273 91.809-25.273 139.716 0 202.712-123.026 377.026-291.077 419.974-4.006 40.85-38.561 72.894-80.46 72.894-41.888 0-76.454-32.033-80.46-72.904-168.040-42.948-291.077-217.262-291.077-419.974 0-47.907-12.843-94.574-25.273-139.716-19.773-71.781-38.434-139.61 2.374-196.365 35.838-49.836 111.042-77.631 241.56-88.587 0 0 13.489-1.579 45.788-2.946 2.003-57.486 49.126-103.507 107.089-103.507 57.942 0 105.054 45.989 107.089 103.444 32.616 1.388 45.788 3.009 45.788 3.009 130.518 10.957 205.722 38.752 241.56 88.587 40.818 56.755 22.147 124.573 2.374 196.376zM826.406 191.42c-22.2-30.878-92.9-49.836-210.088-56.353l-25.368-1.409-0.021 0.064-25.389-0.625c-16.965-0.434-34.725-0.657-53.544-0.657s-36.59 0.223-53.544 0.657l-25.389 0.625-0.021-0.064-25.368 1.409c-117.209 6.517-187.888 25.474-210.088 56.353-18.438 25.644-5.839 71.4 8.753 124.393 12.419 45.11 26.491 96.227 26.491 151.298 0 168.305 104.98 311.009 244.187 331.938 0 0 17.092 2.575 34.99 2.575s34.99-2.575 34.99-2.575c139.207-20.939 244.187-163.632 244.187-331.938 0-55.070 14.072-106.188 26.491-151.298 14.581-52.993 27.18-98.749 8.732-124.393z" />
<glyph unicode="&#xe908;" glyph-name="alphabetical-order" d="M447.843 272.343h-83.981v666.69c0 11.584-9.393 20.966-20.966 20.966h-169.094c-11.573 0-20.966-9.382-20.966-20.966v-666.69h-83.981c-8.072 0-15.431-4.644-18.912-11.919-3.48-7.286-2.474-15.903 2.579-22.193l189.495-282.575c3.984-4.959 9.99-7.82 16.333-7.82s12.349 2.862 16.333 7.82l189.495 282.575c5.053 6.29 6.059 14.907 2.579 22.193-3.48 7.275-10.84 11.919-18.912 11.919zM974.918 547.853l-139.741 395.993c-2.956 8.376-10.882 13.985-19.771 13.985h-40.476c-1.111 0-2.233-0.084-3.323-0.262-1.090 0.189-2.201 0.262-3.334 0.262h-39.417c-8.911 0-16.826-5.609-19.792-14.006l-139.175-395.993c-2.254-6.405-1.258-13.513 2.673-19.058s10.295-8.848 17.109-8.848h60.53c9.225 0 17.36 6.017 20.054 14.844l26.575 87.262h151.157l26.585-87.262c2.684-8.827 10.829-14.844 20.054-14.844h60.499c6.793 0 13.188 3.292 17.119 8.848 3.942 5.567 4.927 12.674 2.673 19.079zM721.916 705.436c25.128 81.455 42.143 138.022 50.529 168.161l51.661-168.161h-102.19zM914.713 18.209h-186.779l198.426 285.196c2.432 3.522 3.743 7.695 3.743 11.982v35.811c0 11.573-9.393 20.966-20.966 20.966h-273.297c-11.573 0-20.966-9.393-20.966-20.966v-40.297c0-11.584 9.393-20.966 20.966-20.966h175.929l-198.699-284.892c-2.453-3.522-3.763-7.695-3.763-12.003v-36.073c0-11.584 9.393-20.966 20.966-20.966h284.462c11.573 0 20.966 9.382 20.966 20.966v40.276c-0.021 11.594-9.393 20.966-20.987 20.966z" />
<glyph unicode="&#xe909;" glyph-name="anchor-navigational-interface-sign" d="M923.865 104.83l-40.918 214.048c-1.388 7.213-6.503 13.152-13.434 15.553s-14.624 0.939-20.198-3.862l-183.193-134.613c-5.564-4.791-8.131-12.192-6.743-19.415 1.367-7.202 6.493-13.142 13.424-15.553l33.298-13.058c-33.935-27.891-75.741-48.037-121.513-58.496v458.702h89.3c11.346 0 20.553 9.207 20.553 20.553v100.448c0 11.346-9.196 20.553-20.553 20.553h-89.3v4.447c43.131 25.553 70.333 72.463 70.333 122.932 0 78.82-64.112 142.932-142.932 142.932-78.799 0-142.932-64.112-142.932-142.932 0-50.469 27.213-97.39 70.344-122.932v-4.447h-89.3c-11.346 0-20.553-9.207-20.553-20.553v-100.448c0-11.346 9.196-20.553 20.553-20.553h89.3v-458.671c-45.772 10.438-87.578 30.595-121.513 58.486l33.298 13.058c6.941 2.401 12.056 8.34 13.434 15.553s-1.19 14.614-6.754 19.405l-183.203 134.602c-5.553 4.791-13.257 6.273-20.188 3.862s-12.046-8.34-13.434-15.553l-40.918-214.048c-1.378-7.213 1.19-14.614 6.743-19.405 5.564-4.812 13.246-6.263 20.188-3.873l39.833 13.862c79.488-100.093 207.274-159.414 345.102-159.414 137.838 0 265.624 59.331 345.091 159.404l39.833-13.862c6.952-2.39 14.614-0.939 20.188 3.873 5.564 4.802 8.142 12.202 6.764 19.415zM511.99 764.073c-29.227 0-52.995 23.779-52.995 52.995s23.768 53.006 52.995 53.006c29.227 0 53.006-23.779 53.006-52.995s-23.768-53.006-53.006-53.006z" />
<glyph unicode="&#xe90a;" glyph-name="antique-building" d="M67.739 588.743h113.612v-447.581h-113.612v447.581zM326.325 588.743h113.612v-447.581h-113.612v447.581zM584.911 588.743h113.612v-447.581h-113.612v447.581zM843.497 588.743h113.612v-447.581h-113.612v447.581zM1003.313 743.791h-10.954v1.841c0 8.626-5.358 16.353-13.436 19.373l-459.673 171.991c-4.686 1.748-9.816 1.748-14.501 0l-459.693-172.001c-8.078-3.020-13.436-10.747-13.436-19.373v-1.841h-10.933c-11.419 0-20.687-9.268-20.687-20.687v-68.298c0-11.419 9.268-20.687 20.687-20.687h982.626c11.419 0 20.687 9.268 20.687 20.687v68.298c0 11.429-9.268 20.697-20.687 20.697zM1003.313 92.155h-982.626c-11.419 0-20.687-9.268-20.687-20.687v-93.091c0-11.419 9.268-20.687 20.687-20.687h982.626c11.419 0 20.687 9.268 20.687 20.687v93.091c0 11.419-9.268 20.687-20.687 20.687z" />
<glyph unicode="&#xe90b;" glyph-name="archive-filled-box" d="M922.21 620.479h-820.42c-12.027 0-21.787-9.761-21.787-21.787v-620.936c0-12.027 9.761-21.787 21.787-21.787h820.431c12.027 0 21.787 9.761 21.787 21.787v620.936c-0.011 12.027-9.75 21.787-21.798 21.787zM651.809 388.085c0-9.031-7.321-16.34-16.34-16.34h-246.937c-9.020 0-16.34 7.31-16.34 16.34v70.809c0 9.031 7.321 16.34 16.34 16.34h246.937c9.020 0 16.34-7.31 16.34-16.34v-70.809zM1002.213 940.032h-980.426c-12.027 0-21.787-9.761-21.787-21.787v-206.979c0-12.027 9.761-21.787 21.787-21.787h980.426c12.027 0 21.787 9.761 21.787 21.787v206.979c0 12.027-9.761 21.787-21.787 21.787z" />
<glyph unicode="&#xe90c;" glyph-name="arrow-angle-pointing-to-right" d="M349.075-57.886l491.123 491.113c7.825 7.825 7.825 21.68 0 29.505l-491.144 491.154c-3.912 3.912-9.223 6.114-14.753 6.114s-10.84-2.201-14.753-6.114l-135.496-135.496c-4.079-4.079-6.114-9.411-6.114-14.753s2.034-10.673 6.114-14.753l340.895-340.895-340.885-340.906c-7.835-7.825-7.825-21.68 0-29.505l135.496-135.465c8.159-8.159 21.367-8.159 29.516 0z" />
<glyph unicode="&#xe90d;" glyph-name="arrow-double-up-and-down-sign" d="M528.481-56.060l147.742 185.187c5.051 6.348 6.032 15.016 2.51 22.302-3.511 7.297-10.903 11.947-19.002 11.947h-48.833v569.247h48.833c8.098 0 15.49 4.64 19.002 11.937 3.511 7.308 2.531 15.965-2.51 22.302l-147.742 185.197c-3.996 5.019-10.060 7.94-16.471 7.94s-12.485-2.921-16.481-7.94l-147.732-185.187c-5.051-6.337-6.032-14.984-2.51-22.302 3.511-7.297 10.903-11.937 19.002-11.937h48.843v-569.247h-48.854c-8.098 0-15.49-4.64-19.002-11.947-3.522-7.286-2.541-15.965 2.51-22.302l147.721-185.187c3.996-5.019 10.070-7.94 16.481-7.94s12.496 2.91 16.492 7.93z" />
<glyph unicode="&#xe90e;" glyph-name="arrow-down-broken-filled-angle" d="M974.612 409.855c-3.951 6.87-11.298 11.098-19.211 11.098h-112.315v516.85c0 12.253-9.944 22.197-22.197 22.197h-580.799c-7.17 0-13.895-3.463-18.057-9.278l-171.481-239.746c-4.839-6.759-5.483-15.66-1.687-23.062 3.818-7.391 11.42-12.042 19.744-12.042h490.336v-254.929h-112.349c-7.935 0-15.26-4.228-19.222-11.098-3.94-6.87-3.94-15.327 0-22.197l254.418-440.549c3.951-6.87 11.298-11.098 19.211-11.098 7.935 0 15.26 4.228 19.222 11.098l254.374 440.549c3.984 6.881 3.984 15.338 0.011 22.208z" />
<glyph unicode="&#xe90f;" glyph-name="arrow-down-curve" d="M985.861 618.305c0 188.408-153.287 341.695-341.684 341.695-188.408 0-341.684-153.287-341.684-341.695l-0.247-369.542-141.846 142.898c-3.685 3.685-8.691 5.758-13.902 5.758-5.221 0-10.217-2.073-13.902-5.758l-88.795-88.816c-7.671-7.682-7.671-20.122 0-27.804l333.272-333.272c7.682-7.703 20.133-7.703 27.804 0l333.272 333.272c3.696 3.685 5.769 8.691 5.769 13.891s-2.073 10.217-5.769 13.913l-88.805 88.816c-7.37 7.381-20.434 7.381-27.804 0l-142.351-142.909 0.269 369.542c0 90.814 73.893 164.697 164.697 164.697 90.814 0 164.697-73.883 164.697-164.697l-0.086-319.682c0-10.958 8.896-19.865 19.875-19.865h137.441c10.969 0 19.875 8.906 19.875 19.865l-0.097 319.692z" />
<glyph unicode="&#xe910;" glyph-name="arrow-down-filled-triangle" d="M5.974 736.668l489.359-613.469c8.094-10.128 25.208-10.128 33.301 0l489.412 613.512c5.825 7.338 7.551 18.275 4.409 27.795-0.65 1.991-1.374 3.514-1.981 4.654-3.738 6.922-10.916 11.246-18.797 11.246h-979.389c-7.838 0-15.059-4.313-18.765-11.246-0.628-1.161-1.352-2.694-1.96-4.537-3.163-9.638-1.448-20.596 4.409-27.955z" />
<glyph unicode="&#xe911;" glyph-name="arrow-left-broken-angle" d="M1002.698 835.851h-126.099c-11.765 0-21.313-9.548-21.313-21.313v-449.579h-467.813v114.771c0 7.619-4.060 14.653-10.657 18.457s-14.727 3.783-21.313 0l-344.846-199.139c-6.596-3.804-10.657-10.848-10.657-18.457 0-7.598 4.060-14.653 10.657-18.447l344.846-199.139c3.293-1.918 6.98-2.867 10.657-2.867s7.353 0.948 10.657 2.867c6.596 3.794 10.657 10.848 10.657 18.447v114.782h615.225c11.765 0 21.313 9.548 21.313 21.313v596.991c0 11.765-9.538 21.313-21.313 21.313z" />
<glyph unicode="&#xe912;" glyph-name="arrow-pointing-to-right" d="M1012.965 467.102l-438.053 252.971c-6.82 3.94-15.251 3.94-22.070 0-6.831-3.94-11.035-11.234-11.035-19.113v-105.927h-0.011c-3.079-0.397-309.879-43.070-524.481-336.629l-13.353-19.146c-5.937-8.508-5.131-20.007 1.92-27.632 7.063-7.592 18.473-9.281 27.411-3.984l20.007 11.819c3.818 2.273 12.106 6.952 12.591 7.239 115.693 69.069 229.698 104.095 338.847 104.095 81.683 0 130.756-20.525 137.046-23.251l0.022-112.482c0-7.879 4.204-15.173 11.035-19.113 3.421-1.975 7.217-2.957 11.035-2.957 3.807 0 7.614 0.982 11.035 2.957l438.053 252.927c6.831 3.94 11.035 11.245 11.035 19.113s-4.193 15.173-11.035 19.113z" />
<glyph unicode="&#xe913;" glyph-name="arrow-right-curve" d="M681.234-6.113v137.444c0 10.969-8.896 19.865-19.865 19.865l-319.678-0.064c-90.816 0-164.7 73.863-164.7 164.7 0 90.795 73.884 164.69 164.7 164.69l369.55 0.269-142.901-142.354c-7.392-7.37-7.392-20.424 0-27.805l88.818-88.807c3.685-3.696 8.702-5.769 13.902-5.769s10.217 2.074 13.902 5.769l333.279 333.29c7.703 7.682 7.703 20.123 0 27.815l-333.279 333.279c-7.692 7.671-20.123 7.671-27.805 0l-88.818-88.796c-3.696-3.685-5.769-8.692-5.769-13.902s2.074-10.217 5.769-13.913l142.901-141.838-369.539-0.247c-188.412 0-341.702-153.28-341.702-341.681 0-188.412 153.291-341.713 341.702-341.713l319.688-0.097c10.948 0.011 19.844 8.906 19.844 19.865z" />
<glyph unicode="&#xe914;" glyph-name="arrows-circle-of-two-rotating-in-clockwise-direction" d="M1015.233 856.141c-6.082 4.347-14.013 5.12-20.805 2.017l-113.357-51.569c-106.962 98.132-245.577 152.178-390.293 152.178-163.348 0-319.779-69.657-429.166-191.113-3.751-4.169-5.674-9.676-5.329-15.267 0.345-5.601 2.926-10.826 7.168-14.504l118.091-102.417c8.548-7.43 21.474-6.677 29.123 1.693 71.747 78.498 173.84 123.525 280.112 123.525 64.108 0 127.788-16.552 184.143-47.891l-81.779-37.211c-6.792-3.093-11.442-9.572-12.153-17.002-0.721-7.43 2.581-14.682 8.652-19.018l358.725-256.225c3.616-2.571 7.869-3.898 12.153-3.898 2.936 0 5.883 0.627 8.652 1.891 6.792 3.093 11.442 9.572 12.153 17.002l42.582 438.769c0.711 7.44-2.592 14.692-8.673 19.039zM842.438 260.534c-8.558 7.409-21.474 6.677-29.123-1.693-71.747-78.518-173.861-123.535-280.112-123.535-64.108 0-127.788 16.552-184.143 47.891l81.789 37.211c6.792 3.093 11.432 9.572 12.153 17.012 0.721 7.43-2.581 14.671-8.652 19.008l-358.725 256.214c-6.092 4.347-14.013 5.12-20.805 2.017-6.792-3.093-11.432-9.572-12.153-17.002l-42.572-438.759c-0.721-7.44 2.581-14.692 8.652-19.039 6.092-4.347 14.013-5.099 20.805-2.006l113.357 51.569c106.973-98.132 245.587-152.167 390.304-152.167 163.348 0 319.779 69.657 429.166 191.113 3.741 4.159 5.674 9.676 5.329 15.267-0.345 5.601-2.926 10.826-7.179 14.504l-118.091 102.396z" />
<glyph unicode="&#xe915;" glyph-name="arrows-couple-to-opposite-directions" d="M74.828 592.452h631.481l-116.464-116.486c-4.019-4.019-6.28-9.474-6.28-15.154s2.261-11.135 6.28-15.154l67.594-67.561c4.19-4.19 9.667-6.28 15.154-6.28s10.953 2.090 15.154 6.28l272.764 272.764c8.359 8.37 8.359 21.938 0 30.308l-272.786 272.807c-8.038 8.038-22.27 8.038-30.308 0l-67.551-67.572c-8.37-8.37-8.37-21.938 0-30.308l116.432-116.464h-631.47c-11.832 0-21.434-9.603-21.434-21.434v-104.311c0-11.843 9.592-21.434 21.434-21.434zM949.162 303.794h-631.47l116.443 116.464c8.37 8.359 8.37 21.938 0 30.308l-67.561 67.572c-4.019 4.019-9.474 6.28-15.154 6.28s-11.135-2.261-15.154-6.28l-272.775-272.797c-8.37-8.359-8.37-21.938 0-30.298l272.764-272.764c4.19-4.19 9.667-6.28 15.154-6.28s10.964 2.090 15.154 6.28l67.583 67.561c4.019 4.019 6.28 9.474 6.28 15.154s-2.261 11.124-6.28 15.143l-116.454 116.464h631.481c11.832 0 21.434 9.603 21.434 21.434v104.311c-0.011 11.843-9.592 21.445-21.445 21.445z" />
<glyph unicode="&#xe916;" glyph-name="arrows-right-and-left-filled-triangles" d="M438.971 793.053c-7.238 3.494-15.836 2.521-22.122-2.489l-408.972-326.101c-4.968-3.975-7.876-9.989-7.876-16.359 0-6.359 2.897-12.384 7.876-16.348l408.972-326.237c3.776-3.002 8.389-4.571 13.054-4.571 3.086 0 6.182 0.68 9.069 2.071 7.238 3.473 11.84 10.815 11.84 18.848v652.337c0 8.033-4.602 15.365-11.84 18.848zM1016.113 464.453l-408.972 326.216c-6.286 5.010-14.884 5.993-22.122 2.489-7.228-3.483-11.83-10.815-11.83-18.848v-652.64c0-8.043 4.592-15.365 11.851-18.838 2.876-1.402 5.983-2.081 9.069-2.081 4.644 0 9.278 1.548 13.054 4.581l408.972 326.404c4.979 3.964 7.866 9.989 7.866 16.348 0 6.391-2.897 12.405-7.887 16.369z" />
<glyph unicode="&#xe917;" glyph-name="arrows-triangles-pointing-to-opposite-sides" d="M1019.236 288.925l-269.899 338.361c-8.285 10.378-25.804 10.378-34.089 0l-269.889-338.361c-5.222-6.552-6.236-15.513-2.595-23.057 3.63-7.544 11.261-12.341 19.645-12.341h539.81c8.383 0 16.014 4.786 19.645 12.341s2.605 16.516-2.627 23.057zM581.257 630.131c-3.63 7.544-11.261 12.341-19.645 12.341h-539.81c-8.383 0-16.014-4.797-19.645-12.341-3.641-7.544-2.627-16.505 2.595-23.057l269.899-338.361c4.143-5.189 10.411-8.209 17.039-8.209s12.907 3.020 17.039 8.209l269.899 338.361c5.255 6.552 6.268 15.513 2.627 23.057z" />
<glyph unicode="&#xe918;" glyph-name="arrows-up-and-down-filled-triangles" d="M186.884 509.23h650.253c8.312 0 15.858 4.75 19.453 12.231 3.606 7.459 2.602 16.344-2.558 22.821l-325.137 407.59c-4.102 5.138-10.309 8.129-16.873 8.129s-12.781-2.99-16.873-8.129l-325.148-407.59c-5.171-6.488-6.175-15.361-2.569-22.821 3.595-7.481 11.141-12.231 19.453-12.231zM837.126 386.759h-650.242c-8.301 0-15.858-4.739-19.453-12.231-3.606-7.459-2.602-16.344 2.569-22.81l325.137-407.601c4.102-5.138 10.309-8.129 16.873-8.129s12.781 2.99 16.873 8.129l325.116 407.601c5.171 6.488 6.164 15.351 2.558 22.81-3.573 7.492-11.119 12.231-19.431 12.231z" />
<glyph unicode="&#xe919;" glyph-name="ascending-arrow" d="M199.721 513.369c111.749 141.035 262.56 251 436.094 318.001l4.152 1.607-13.25 74.858c-1.377 7.606 1.461 15.399 7.397 20.376 5.905 4.997 14.064 6.427 21.346 3.777l354.256-128.682c7.272-2.65 12.593-8.962 13.949-16.599 1.346-7.616-1.482-15.399-7.397-20.376l-288.507-242.507c-5.916-4.977-14.064-6.437-21.346-3.777-7.282 2.65-12.603 8.972-13.949 16.599l-12.332 69.631-6.354-2.848c-261.11-117.112-432.995-354.747-448.603-620.218-0.668-11.466-10.151-20.407-21.628-20.418l-181.86-0.073c-5.947 0-11.633 2.431-15.733 6.74-4.111 4.319-6.249 10.131-5.926 16.067 10.026 190.54 80.93 377.992 199.69 527.843z" />
<glyph unicode="&#xe91a;" glyph-name="ascending-business-graphic" d="M931.362 775.382c-43.542 0-80.079-30.252-89.923-70.842l-96.527-12.436c-16.417 26.107-45.373 43.542-78.402 43.542-51.082 0-92.638-41.557-92.638-92.638 0-24.687 9.772-47.101 25.582-63.724l-86.24-193.979c-0.411 0-0.802 0.062-1.214 0.062-15.594 0-30.273-3.909-43.172-10.739l-53.283 51.442c3.734 10.050 5.884 20.861 5.884 32.196 0 51.071-41.557 92.628-92.638 92.628-51.071 0-92.628-41.557-92.628-92.628 0-13.393 2.911-26.065 8.034-37.555l-115.947-121.944c-10.965 4.588-22.99 7.139-35.611 7.139-51.082 0-92.638-41.567-92.638-92.638 0-51.092 41.557-92.649 92.638-92.649 51.071 0 92.628 41.557 92.628 92.649 0 14.247-3.333 27.701-9.114 39.777l114.816 120.74c11.562-5.215 24.337-8.167 37.823-8.167 15.512 0 30.129 3.878 42.986 10.646l53.386-51.575c-3.682-9.998-5.801-20.737-5.801-31.98 0-51.071 41.557-92.638 92.638-92.638 51.071 0 92.638 41.567 92.638 92.638 0 26.878-11.572 51.041-29.902 67.962l84.492 190.070c2.407-0.195 4.824-0.37 7.283-0.37 45.599 0 83.514 33.163 91.137 76.602l92.175 11.86c15.645-28.987 46.34-48.736 81.539-48.736 51.082 0 92.638 41.557 92.638 92.628-0.010 51.102-41.567 92.659-92.638 92.659zM92.638 161.774c-28.39 0-51.493 23.113-51.493 51.493s23.103 51.493 51.493 51.493c28.39 0 51.483-23.103 51.483-51.493s-23.093-51.493-51.483-51.493zM277.318 458.266c0 28.39 23.093 51.483 51.483 51.483s51.493-23.093 51.493-51.483c0-28.4-23.103-51.493-51.493-51.493s-51.483 23.093-51.483 51.493zM512 241.235c-28.39 0-51.493 23.103-51.493 51.493s23.103 51.493 51.493 51.493c28.39 0 51.493-23.103 51.493-51.493s-23.103-51.493-51.493-51.493zM666.51 591.535c-28.39 0-51.493 23.093-51.493 51.483s23.103 51.493 51.493 51.493c28.4 0 51.483-23.103 51.483-51.493s-23.103-51.483-51.483-51.483zM931.362 631.261c-28.4 0-51.483 23.093-51.483 51.483s23.082 51.493 51.483 51.493c28.39 0 51.493-23.103 51.493-51.493s-23.113-51.483-51.493-51.483z" />
<glyph unicode="&#xe91b;" glyph-name="asterisk" d="M982.747 277.16l-279.297 170.846 279.286 170.846c4.804 2.944 8.248 7.674 9.566 13.159s0.404 11.267-2.53 16.072l-82.069 134.153c-6.112 10.013-19.218 13.17-29.231 7.047l-266.605-163.097v312.556c0 11.735-9.524 21.259-21.259 21.259h-157.24c-11.735 0-21.259-9.524-21.259-21.259v-312.556l-266.616 163.086c-10.034 6.123-23.108 2.976-29.231-7.047l-82.069-134.153c-2.934-4.804-3.848-10.587-2.53-16.072s4.762-10.215 9.566-13.159l279.297-170.835-279.297-170.846c-4.804-2.934-8.248-7.674-9.566-13.149-1.318-5.495-0.404-11.278 2.53-16.082l82.069-134.142c6.123-10.013 19.197-13.18 29.231-7.058l266.616 163.097v-312.556c0-11.735 9.524-21.259 21.259-21.259h157.24c11.735 0 21.259 9.524 21.259 21.259v312.546l266.616-163.076c10.013-6.123 23.119-2.966 29.231 7.037l82.069 134.153c2.934 4.804 3.848 10.587 2.53 16.072-1.307 5.495-4.762 10.215-9.566 13.159z" />
<glyph unicode="&#xe91c;" glyph-name="audio-file" d="M868.856 780.5l-171.761 171.772c-4.952 4.952-11.656 7.728-18.666 7.728h-504.62c-14.58 0-26.394-11.814-26.394-26.394v-971.212c0-14.58 11.814-26.394 26.394-26.394h676.381c14.58 0 26.394 11.814 26.394 26.394v799.451c0 7.010-2.777 13.704-7.728 18.655zM513.457 303.224c0-8.182-4.73-15.625-12.131-19.12-2.861-1.341-5.933-1.995-8.984-1.995-4.825 0-9.607 1.647-13.471 4.856l-115.426 95.652h-61.477c-11.656 0-21.115 9.46-21.115 21.115v84.133c0 11.656 9.46 21.115 21.115 21.115h61.477l115.426 95.652c6.313 5.226 15.055 6.345 22.456 2.851 7.401-3.473 12.131-10.917 12.131-19.109v-285.149zM594.592 336.216c-0.507-0.032-1.024-0.053-1.52-0.053-5.585 0-10.969 2.207-14.928 6.187l-2.851 2.84c-7.401 7.39-8.267 19.12-2.016 27.502 15.794 21.316 24.145 46.591 24.145 73.101 0 28.516-9.481 55.258-27.418 77.345-6.82 8.393-6.197 20.587 1.457 28.242l2.829 2.829c4.212 4.212 9.882 6.514 16.005 6.155 5.954-0.296 11.518-3.104 15.277-7.718 24.863-30.437 38.028-67.389 38.028-106.843 0-36.73-11.634-71.728-33.605-101.152-3.653-4.92-9.291-7.992-15.403-8.435zM681.892 270.971c-3.811-4.519-9.343-7.242-15.235-7.485-0.285 0-0.602-0.021-0.887-0.021-5.585 0-10.969 2.228-14.928 6.187l-2.787 2.787c-7.749 7.728-8.267 20.123-1.214 28.516 34.059 40.499 52.809 91.935 52.809 144.839 0 55.026-20.070 107.993-56.525 149.157-7.39 8.351-7.021 20.999 0.845 28.896l2.777 2.777c4.107 4.128 9.449 6.398 15.572 6.208 5.817-0.169 11.297-2.734 15.182-7.084 44.067-49.61 68.339-113.526 68.339-179.954-0.042-63.926-22.741-126.015-63.947-174.823zM655.108 724.123c-3.558 0-6.947 1.404-9.46 3.917-2.502 2.513-3.927 5.923-3.927 9.47l0.021 159.694 173.091-173.091-159.726 0.011z" />
<glyph unicode="&#xe91d;" glyph-name="audio-filled-speaker-of-interface" d="M656.621 45.538c0-23.107-13.359-44.126-34.265-53.93-8.083-3.809-16.745-5.657-25.364-5.657-13.613 0-27.113 4.683-38.017 13.712l-325.821 270.001h-173.54c-32.925-0.014-59.615 26.69-59.615 59.6v237.457c0 32.925 26.69 59.615 59.615 59.615h173.554l325.821 270.001c17.817 14.756 42.489 17.901 63.381 8.027 20.878-9.804 34.265-30.823 34.265-53.93l-0.014-804.896zM885.656 138.67c-1.439-0.113-2.85-0.169-4.274-0.169-15.757 0-30.936 6.221-42.151 17.45l-7.984 8.013c-20.878 20.864-23.332 53.901-5.727 77.643 44.605 60.165 68.191 131.502 68.191 206.352 0 80.492-26.76 155.991-77.375 218.342-19.27 23.699-17.492 58.119 4.091 79.702l7.956 7.97c11.934 11.906 27.861 18.395 45.141 17.365 16.815-0.846 32.53-8.76 43.166-21.795 70.223-85.909 107.309-190.214 107.309-301.6 0-103.74-32.784-202.487-94.867-285.532-10.354-13.839-26.21-22.5-43.477-23.741z" />
<glyph unicode="&#xe91e;" glyph-name="automatic-rotation" d="M874.602 520.4c-1.64-6.269-6.497-11.209-12.755-12.932-1.588-0.426-3.217-0.643-4.826-0.643-4.701 0-9.299 1.837-12.755 5.231l-115.689 114.142c-4.618 4.556-6.466 11.24-4.826 17.519s6.497 11.209 12.755 12.932l16.211 4.452c-41.535 49.754-103.847 79.79-169.252 81.014-9.901 0.187-17.82 8.272-17.82 18.162v72.192c0 4.857 1.951 9.507 5.407 12.921s8.282 4.982 12.994 5.231c115.574-1.578 219.66-60.849 279.886-158.925l29.319 8.064c6.258 1.712 12.952-0.042 17.56-4.577 4.618-4.556 6.466-11.24 4.826-17.519l-41.036-157.265zM1.090 939.243v-764.902c0-11.458 9.299-20.757 20.757-20.757h194.637l-0.010-193.88c-0.135-0.965-0.208-1.951-0.208-2.947 0-11.458 9.299-20.757 20.757-20.757 0.062 0 0.135 0 0.208 0h764.923c11.458 0 20.757 9.299 20.757 20.757v483.231c0 11.458-9.299 20.757-20.757 20.757h-476.319v478.498c0 11.458-9.299 20.757-20.757 20.757h-483.231c-11.458 0-20.757-9.299-20.757-20.757zM309.236 28.752v339.23h620.911v-339.23h-620.911zM216.484 439.988v-193.641h-122.642v620.901h339.23v-406.513h-195.831c-11.458 0-20.757-9.299-20.757-20.747z" />
<glyph unicode="&#xe91f;" glyph-name="automatic-rotation-to-vertical-or-horizontal-position" d="M149.398 520.4c1.64-6.269 6.497-11.209 12.755-12.932 1.588-0.426 3.207-0.643 4.816-0.643 4.712 0 9.309 1.837 12.755 5.231l115.709 114.142c4.618 4.556 6.455 11.24 4.816 17.519s-6.497 11.209-12.755 12.932l-16.201 4.452c41.535 49.754 103.847 79.79 169.252 81.014 9.901 0.187 17.82 8.272 17.82 18.162v72.192c0 4.857-1.951 9.507-5.407 12.921s-8.282 4.982-12.994 5.231c-115.574-1.588-219.67-60.859-279.886-158.936l-29.329 8.064c-6.258 1.712-12.952-0.042-17.571-4.577-4.618-4.556-6.455-11.24-4.816-17.519l41.036-157.254zM1002.153 960h-483.221c-11.458 0-20.757-9.299-20.757-20.757v-478.509h-476.329c-11.458 0-20.757-9.299-20.757-20.757v-483.231c0-11.458 9.299-20.757 20.757-20.757h764.923c0.073 0 0.145 0 0.208 0 11.458 0 20.757 9.299 20.757 20.757 0 1.017-0.073 1.982-0.208 2.947l-0.010 193.88h194.637c11.458 0 20.757 9.299 20.757 20.757v764.912c0 11.458-9.289 20.757-20.757 20.757zM93.842 28.752v339.23h620.911v-339.23h-620.911zM786.759 460.734h-195.841v406.513h339.23v-620.911h-122.632v193.651c0 11.447-9.289 20.747-20.757 20.747z" />
<glyph unicode="&#xe920;" glyph-name="back-filled-arrow" d="M800.668 954.026l-613.469-489.37c-10.128-8.094-10.128-25.208 0-33.291l613.501-489.402c7.338-5.825 18.285-7.551 27.795-4.409 1.981 0.65 3.514 1.374 4.643 1.981 6.922 3.738 11.257 10.916 11.257 18.797v979.378c0 7.838-4.313 15.059-11.257 18.765-1.15 0.628-2.694 1.352-4.537 1.96-9.617 3.163-20.575 1.448-27.934-4.409z" />
<glyph unicode="&#xe921;" glyph-name="back-left-arrow" d="M362.918 819.649l-356.761-356.771c-8.221-8.221-8.221-21.536 0-29.767l356.761-356.782c8.221-8.21 21.546-8.21 29.767 0l95.058 95.027c3.947 3.947 6.168 9.315 6.168 14.883 0 5.589-2.221 10.936-6.168 14.883l-152.95 153.003h668.155c11.62 0 21.052 9.431 21.052 21.052v145.624c0 11.62-9.431 21.052-21.052 21.052h-668.155l152.961 152.971c7.894 7.894 7.894 21.873 0 29.767l-95.058 95.058c-3.947 3.947-9.305 6.168-14.883 6.168s-10.947-2.221-14.894-6.168z" />
<glyph unicode="&#xe922;" glyph-name="back-left-arrow-circular-button" d="M512 960c-282.766 0-512-229.234-512-512 0-282.755 229.234-512 512-512 282.755 0 512 229.234 512 512s-229.245 512-512 512zM664.609 178.914c0-10.295-5.822-19.72-15.029-24.323-3.852-1.926-8.031-2.884-12.178-2.884-5.768 0-11.514 1.828-16.302 5.42l-359.631 269.097c-6.867 5.137-10.904 13.201-10.904 21.776s4.037 16.651 10.904 21.776l359.631 269.097c8.271 6.181 19.273 7.15 28.48 2.547 9.229-4.614 15.029-14.028 15.029-24.323v-538.184z" />
<glyph unicode="&#xe923;" glyph-name="back-triangular-arrow-square-button-outline" d="M0 936.989v-977.978c0-12.685 10.326-23.011 23.011-23.011h977.978c12.685 0 23.011 10.326 23.011 23.011v977.978c0 12.685-10.326 23.011-23.011 23.011h-977.978c-12.685 0-23.011-10.326-23.011-23.011zM927.111 863.111v-830.222h-830.222v830.222h830.222zM705.121 163.578v568.865c0 4.792-3.575 9.11-9.174 10.929-5.535 1.841-11.898 0.829-16.152-2.552l-356.566-284.454c-2.897-2.315-4.35-5.341-4.35-8.356s1.464-6.052 4.35-8.356l356.577-284.443c4.253-3.37 10.617-4.415 16.152-2.563 5.589 1.82 9.163 6.138 9.163 10.929z" />
<glyph unicode="&#xe924;" glyph-name="back-triangular-left-arrow-in-square-filled-button" d="M1001.739 960h-979.478c-12.288 0-22.261-9.973-22.261-22.261v-979.478c0-12.288 9.973-22.261 22.261-22.261h979.478c12.288 0 22.261 9.973 22.261 22.261v979.478c0 12.288-9.973 22.261-22.261 22.261zM693.983 110.325c0-5.699-4.285-10.808-10.897-12.978-6.578-2.193-14.147-0.979-19.189 3.039l-423.335 337.675c-3.439 2.738-5.176 6.333-5.176 9.939s1.736 7.19 5.176 9.928l423.324 337.675c5.042 4.029 12.611 5.231 19.189 3.039 6.623-2.159 10.897-7.279 10.897-12.978v-675.339z" />
<glyph unicode="&#xe925;" glyph-name="barcode-lines" d="M76.62 830.517h-65.408c-6.189 0-11.212-5.023-11.212-11.212v-742.611c0-6.189 5.023-11.212 11.212-11.212h65.408c6.189 0 11.212 5.023 11.212 11.212v742.611c0 6.189-5.023 11.212-11.212 11.212zM695.601 830.517h-46.73c-6.2 0-11.212-5.023-11.212-11.212v-742.611c0-6.189 5.012-11.212 11.212-11.212h46.73c6.2 0 11.212 5.023 11.212 11.212v742.611c0 6.189-5.012 11.212-11.212 11.212zM190.597 830.517h-44.846c-6.189 0-11.212-5.023-11.212-11.212v-742.611c0-6.189 5.023-11.212 11.212-11.212h44.846c6.189 0 11.212 5.023 11.212 11.212v742.611c0 6.189-5.023 11.212-11.212 11.212zM1012.788 830.517h-44.846c-6.189 0-11.212-5.023-11.212-11.212v-742.611c0-6.189 5.023-11.212 11.212-11.212h44.846c6.2 0 11.212 5.023 11.212 11.212v742.611c0 6.189-5.012 11.212-11.212 11.212zM910.012 830.517h-30.54c-6.2 0-11.212-5.023-11.212-11.212v-742.611c0-6.189 5.012-11.212 11.212-11.212h30.54c6.189 0 11.212 5.023 11.212 11.212v742.611c0 6.189-5.023 11.212-11.212 11.212zM581.602 830.517h-44.846c-6.2 0-11.212-5.023-11.212-11.212v-742.611c0-6.189 5.012-11.212 11.212-11.212h44.846c6.189 0 11.212 5.023 11.212 11.212v742.611c0 6.189-5.023 11.212-11.212 11.212zM472.759 830.517h-28.029c-6.189 0-11.212-5.023-11.212-11.212v-742.611c0-6.189 5.023-11.212 11.212-11.212h28.029c6.189 0 11.212 5.023 11.212 11.212v742.611c0 6.189-5.023 11.212-11.212 11.212zM824.31 830.517h-17.299c-6.2 0-11.212-5.023-11.212-11.212v-742.611c0-6.189 5.012-11.212 11.212-11.212h17.299c6.189 0 11.212 5.023 11.212 11.212v742.611c0 6.189-5.012 11.212-11.212 11.212zM377.461 830.517h-44.846c-6.189 0-11.212-5.023-11.212-11.212v-742.611c0-6.189 5.023-11.212 11.212-11.212h44.846c6.189 0 11.212 5.023 11.212 11.212v742.611c0 6.189-5.023 11.212-11.212 11.212zM265.345 830.517h-11.212c-6.189 0-11.212-5.023-11.212-11.212v-742.611c0-6.189 5.023-11.212 11.212-11.212h11.212c6.189 0 11.212 5.023 11.212 11.212v742.611c0 6.189-5.023 11.212-11.212 11.212zM753.722 830.517h-4.070c-6.178 0-11.212-5.023-11.212-11.212v-742.611c0-6.189 5.034-11.212 11.212-11.212h4.070c6.178 0 11.212 5.023 11.212 11.212v742.611c0 6.189-5.045 11.212-11.212 11.212z" />
<glyph unicode="&#xe926;" glyph-name="bars-graphic" d="M236.566 382.281h-189.328c-11.53 0-20.888-9.358-20.888-20.888v-404.485c0-11.53 9.358-20.888 20.888-20.888h189.328c11.53 0 20.888 9.358 20.888 20.888v404.485c0 11.53-9.347 20.888-20.888 20.888zM606.648 671.141h-189.307c-11.53 0-20.888-9.358-20.888-20.888v-693.365c0-11.53 9.358-20.888 20.888-20.888h189.318c11.53 0 20.888 9.358 20.888 20.888v693.365c-0.010 11.541-9.358 20.888-20.898 20.888zM976.751 960h-189.318c-11.53 0-20.888-9.358-20.888-20.888v-982.224c0-11.53 9.358-20.888 20.888-20.888h189.328c11.53 0 20.888 9.358 20.888 20.888v982.224c-0.010 11.541-9.368 20.888-20.898 20.888z" />
<glyph unicode="&#xe927;" glyph-name="bell-silhouette" d="M859.12 486.537c0 207.736-131.986 379.090-302.687 404.764v24.266c0 24.539-19.894 44.433-44.433 44.433s-44.433-19.894-44.433-44.433v-24.266c-170.702-25.664-302.687-197.027-302.687-404.764 0-208.819-207.148-380.992 230.068-405.268-1.829-8.271-2.785-16.804-2.785-25.432 0-66.072 53.755-119.826 119.837-119.826 66.093 0 119.837 53.755 119.837 119.826 0 8.628-0.956 17.162-2.785 25.432 437.216 24.276 230.068 196.449 230.068 405.268z" />
<glyph unicode="&#xe928;" glyph-name="bold" d="M758.579 465.554v0c85.849 38.296 133.117 108.427 133.117 197.485 0.011 191.5-120.334 296.961-338.814 296.961h-430.194c-11.653 0-21.111-9.458-21.111-21.111v-981.778c0-11.653 9.458-21.111 21.111-21.111h430.205c248.659 0 369.531 98.579 369.531 301.352 0 58.151-40.048 190.444-163.844 228.202zM552.892 115.942h-261.146v263.289h261.146c86.25 0 177.904-46.814 177.904-133.55 0.011-89.617-89.332-129.739-177.904-129.739zM552.892 548.933h-261.146v235.517h261.146c136.569 0 147.156-96.288 147.156-125.802 0-51.089-16.72-109.715-147.156-109.715z" />
<glyph unicode="&#xe929;" glyph-name="bomb" d="M801.427 734.323c-82.1 10.743-75.629-64.181-91.737-120.451-8.407-29.429-44.864-13.215-65.949-11.353-17.508 1.557-34.847 0.095-50.019-7.628-62.898 53.281-144.187 85.488-233.031 85.488-199.194 0-360.689-161.485-360.689-360.689 0-199.215 161.506-360.689 360.689-360.689s360.689 161.495 360.689 360.689c0 89.686-32.817 171.659-87.003 234.757 8.196 0.852 17.76 0.431 29.281-1.768 28.229-5.377 55.417-1.326 75.145 20.591 15.456 17.171 19.118 41.96 21.969 63.94 3.946 30.544 3.251 56.143 40.634 51.261 29.281-3.83 28.913 42.076 0.021 45.853zM241.785 457.743c-48.252-34.416-77.039-90.285-77.039-149.448 0-23.242-18.844-42.086-42.086-42.086s-42.086 18.844-42.086 42.086c0 86.298 41.981 167.787 112.328 217.975 18.886 13.489 45.19 9.133 58.689-9.817 13.499-18.928 9.122-45.211-9.806-58.71zM643.193 798.294c5.303-11.5 18.949-16.519 30.439-11.216 11.479 5.282 16.498 18.928 11.216 30.428l-48.967 106.163c-5.303 11.5-18.928 16.519-30.449 11.216-3.746-1.736-6.828-4.387-9.091-7.565-4.577-6.471-5.65-15.13-2.094-22.842l48.946-106.184zM790.863 786.584c11.447-5.398 25.094-0.484 30.513 10.963l49.862 105.742c5.408 11.458 0.516 25.125-10.953 30.513-10.227 4.819-22.19 1.441-28.503-7.47-0.737-1.084-1.431-2.241-2.010-3.483l-49.872-105.752c-5.398-11.447-0.505-25.115 10.963-30.513zM1023.242 737.89c-3.23 12.258-15.761 19.56-27.987 16.34l-113.086-29.765c-5.429-1.431-9.869-4.693-12.868-8.943-3.798-5.334-5.261-12.268-3.472-19.076 3.23-12.247 15.761-19.549 28.029-16.329l113.044 29.787c12.247 3.199 19.57 15.751 16.34 27.987zM972.423 519.084l-95.473 67.475c-10.343 7.302-24.663 4.85-31.954-5.482-7.302-10.343-4.85-24.652 5.503-31.954l95.473-67.475c10.332-7.312 24.641-4.85 31.954 5.482 7.302 10.353 4.85 24.652-5.503 31.954z" />
<glyph unicode="&#xe92a;" glyph-name="book" d="M1023.662 675.884l-13.397 73.232c-1.838 10.048-10.587 17.339-20.783 17.339-0.042 0-0.063 0-0.106 0-10.249-0.042-18.966-7.428-20.72-17.518l-120.525-694.388-614.246-0.021c-14.718 0-28.338 6.086-38.386 17.127-11.517 12.69-17.93 31.613-16.388 47.832 4.501 39.083 32.754 67.463 67.135 67.463h512.613c10.302 0 19.114 7.428 20.825 17.603l120.007 709.476c1.035 6.139-0.676 12.415-4.702 17.17-4.004 4.755-9.911 7.491-16.123 7.491h-512.211c-116.848 0-230.917-95.029-254.299-211.761l-109.441-535.868c-9.847-62.74 5.431-121.719 43.024-166.106 36.917-43.584 91.046-67.59 152.423-67.59l9.784 0.032c0.19 0 0.37-0.011 0.581-0.011 32.691-0.032 657.883-0.074 664.402-0.074 23.657 0 43.817 16.948 48.001 40.752l102.626 670.847c0.37 2.303 0.317 4.681-0.095 6.973z" />
<glyph unicode="&#xe92b;" glyph-name="book-1" d="M957.419 959.958h-49.090c-11.57 0-20.961-9.39-20.961-20.961v-912.007l-573.064 0.105c-41.743 0-75.72 33.956-75.72 75.699s33.967 75.72 75.72 75.72h447.509c11.57 0 20.961 9.39 20.961 20.961v739.564c0 11.57-9.39 20.961-20.961 20.961h-475.314c-132.807 0-240.869-108.063-240.869-240.89v-542.251c0-132.807 108.063-240.859 240.88-240.859h670.908c11.57 0 20.961 9.39 20.961 20.961v982.037c0 11.57-9.401 20.961-20.961 20.961z" />
<glyph unicode="&#xe92c;" glyph-name="book-closed-tool" d="M957.419 959.958h-49.090c-11.57 0-20.961-9.39-20.961-20.961v-912.007l-573.064 0.105c-41.743 0-75.72 33.956-75.72 75.699s33.967 75.72 75.72 75.72h447.509c11.57 0 20.961 9.39 20.961 20.961v739.564c0 11.57-9.39 20.961-20.961 20.961h-475.314c-132.807 0-240.869-108.063-240.869-240.89v-542.251c0-132.807 108.063-240.859 240.88-240.859h670.908c11.57 0 20.961 9.39 20.961 20.961v982.037c0 11.57-9.401 20.961-20.961 20.961zM305.899 854.987c0 20.227 16.454 36.681 36.681 36.681s36.681-16.454 36.681-36.681v-571.177c0-20.237-16.454-36.681-36.681-36.681s-36.681 16.444-36.681 36.681v571.177z" />
<glyph unicode="&#xe92d;" glyph-name="bookmark-filled-interface-sign" d="M838.573 960h-653.146c-24.454 0-44.281-19.827-44.281-44.281v-935.438c0-18.509 11.513-35.071 28.86-41.514 17.391-6.443 36.886-1.406 48.975 12.631l293.019 340.189 293.019-340.189c8.579-9.963 20.934-15.399 33.565-15.399 5.159 0 10.384 0.908 15.41 2.768 17.347 6.443 28.86 23.004 28.86 41.514v935.438c0 24.454-19.827 44.281-44.281 44.281z" />
<glyph unicode="&#xe92e;" glyph-name="bottle-with-liquid" d="M1005.052-12.268l-326.448 635.684v207.38h18.473c15.119 0 27.413 12.283 27.413 27.403v74.378c0 15.141-12.294 27.424-27.413 27.424h-370.145c-15.13 0-27.413-12.283-27.413-27.424v-74.368c0-15.119 12.283-27.403 27.413-27.403h18.473v-207.369l-326.458-635.705c-5.619-10.935-5.144-24.232 1.273-34.736 6.406-10.504 18.010-16.996 30.304-16.996h922.963c12.294 0 23.898 6.514 30.304 16.996 6.395 10.504 6.891 23.811 1.262 34.736zM253.795 289.591l158.689 309.031c2.567 4.993 3.925 10.59 3.925 16.219v215.953h191.193v-215.975c0-5.608 1.359-11.205 3.915-16.219l158.721-309.053-516.443 0.043z" />
<glyph unicode="&#xe92f;" glyph-name="browser-button" d="M854.122 339.383h-408.622c-11.402 0-20.64-9.249-20.64-20.64v-138.039c0-11.402 9.249-20.64 20.64-20.64h408.622c11.412 0 20.65 9.259 20.65 20.64v138.039c0.011 11.391-9.238 20.64-20.65 20.64zM306.931 590.939h-137.063c-11.402 0-20.64-9.238-20.64-20.64v-29.824c0-11.402 9.238-20.64 20.64-20.64h137.063c11.402 0 20.64 9.238 20.64 20.64v29.824c0 11.402-9.238 20.64-20.64 20.64zM1003.36 890.816h-982.721c-11.402 0-20.64-9.259-20.64-20.64v-844.343c0-11.391 9.249-20.64 20.64-20.64h982.721c11.391 0 20.64 9.249 20.64 20.64v844.353c0 11.38-9.249 20.629-20.64 20.629zM935.428 110.301c0-11.391-9.238-20.64-20.629-20.64h-805.599c-11.402 0-20.64 9.249-20.64 20.64v534.379c0 11.402 9.249 20.64 20.64 20.64h805.588c11.402 0 20.64-9.238 20.64-20.64v-534.379zM306.931 339.383h-137.063c-11.402 0-20.64-9.249-20.64-20.64v-29.814c0-11.402 9.238-20.629 20.64-20.629h137.063c11.402 0 20.64 9.227 20.64 20.629v29.814c0 11.391-9.238 20.64-20.64 20.64zM854.122 590.939h-408.622c-11.402 0-20.64-9.238-20.64-20.64v-138.060c0-11.391 9.249-20.629 20.64-20.629h408.622c11.412 0 20.65 9.238 20.65 20.629v138.060c0.011 11.402-9.238 20.64-20.65 20.64z" />
<glyph unicode="&#xe930;" glyph-name="building" d="M672.779 285.381h99.436c9.244 0 16.727 7.483 16.727 16.727v99.436c0 9.244-7.483 16.727-16.727 16.727h-99.436c-9.244 0-16.727-7.483-16.727-16.727v-99.436c0-9.233 7.471-16.727 16.727-16.727zM672.779 495.861h99.436c9.244 0 16.727 7.483 16.727 16.727v99.436c0 9.244-7.483 16.727-16.727 16.727h-99.436c-9.244 0-16.727-7.483-16.727-16.727v-99.436c0-9.233 7.471-16.727 16.727-16.727zM672.779 706.342h99.436c9.244 0 16.727 7.483 16.727 16.727v99.436c0 9.244-7.483 16.727-16.727 16.727h-99.436c-9.244 0-16.727-7.483-16.727-16.727v-99.436c0-9.244 7.471-16.727 16.727-16.727zM462.299 495.861h99.436c9.244 0 16.727 7.483 16.727 16.727v99.436c0 9.244-7.483 16.727-16.727 16.727h-99.436c-9.244 0-16.727-7.483-16.727-16.727v-99.436c0-9.233 7.471-16.727 16.727-16.727zM462.299 706.342h99.436c9.244 0 16.727 7.483 16.727 16.727v99.436c0 9.244-7.483 16.727-16.727 16.727h-99.436c-9.244 0-16.727-7.483-16.727-16.727v-99.436c0-9.244 7.471-16.727 16.727-16.727zM251.818 285.381h99.436c9.244 0 16.727 7.483 16.727 16.727v99.436c0 9.244-7.483 16.727-16.727 16.727h-99.436c-9.244 0-16.727-7.483-16.727-16.727v-99.436c0-9.233 7.471-16.727 16.727-16.727zM462.299 285.381h99.436c9.244 0 16.727 7.483 16.727 16.727v99.436c0 9.244-7.483 16.727-16.727 16.727h-99.436c-9.244 0-16.727-7.483-16.727-16.727v-99.436c0-9.233 7.471-16.727 16.727-16.727zM251.818 495.861h99.436c9.244 0 16.727 7.483 16.727 16.727v99.436c0 9.244-7.483 16.727-16.727 16.727h-99.436c-9.244 0-16.727-7.483-16.727-16.727v-99.436c0-9.233 7.471-16.727 16.727-16.727zM251.818 706.342h99.436c9.244 0 16.727 7.483 16.727 16.727v99.436c0 9.244-7.483 16.727-16.727 16.727h-99.436c-9.244 0-16.727-7.483-16.727-16.727v-99.436c0-9.244 7.471-16.727 16.727-16.727zM880.472 960h-736.921c-12.311 0-22.303-9.992-22.303-22.303v-979.395c0-12.311 9.992-22.303 22.303-22.303h216.056c12.311 0 22.303 9.992 22.303 22.303v177.462h260.193v-177.462c0-12.311 9.992-22.303 22.303-22.303h216.056c12.311 0 22.303 9.992 22.303 22.303v979.395c0.011 12.322-9.992 22.303-22.291 22.303zM835.867 2.908h-126.846v199.764h-394.019v-199.764h-126.846v890.185h647.711v-890.185z" />
<glyph unicode="&#xe931;" glyph-name="building-silhouette" d="M880.472 960h-736.921c-12.311 0-22.303-9.992-22.303-22.303v-979.395c0-12.311 9.992-22.303 22.303-22.303h216.056c12.311 0 22.303 9.992 22.303 22.303v177.462h260.193v-177.462c0-12.311 9.992-22.303 22.303-22.303h216.056c12.311 0 22.303 9.992 22.303 22.303v979.395c0.011 12.322-9.992 22.303-22.291 22.303zM367.97 302.108c0-9.244-7.483-16.727-16.727-16.727h-99.436c-9.244 0-16.727 7.483-16.727 16.727v99.436c0 9.244 7.483 16.727 16.727 16.727h99.436c9.244 0 16.727-7.483 16.727-16.727v-99.436zM367.97 512.588c0-9.244-7.483-16.727-16.727-16.727h-99.436c-9.244 0-16.727 7.483-16.727 16.727v99.436c0 9.244 7.483 16.727 16.727 16.727h99.436c9.244 0 16.727-7.483 16.727-16.727v-99.436zM367.97 723.069c0-9.244-7.483-16.727-16.727-16.727h-99.436c-9.244 0-16.727 7.483-16.727 16.727v99.436c0 9.244 7.483 16.727 16.727 16.727h99.436c9.244 0 16.727-7.483 16.727-16.727v-99.436zM578.45 302.108c0-9.244-7.483-16.727-16.727-16.727h-99.436c-9.244 0-16.727 7.483-16.727 16.727v99.436c0 9.244 7.483 16.727 16.727 16.727h99.436c9.244 0 16.727-7.483 16.727-16.727v-99.436zM578.45 512.588c0-9.244-7.483-16.727-16.727-16.727h-99.436c-9.244 0-16.727 7.483-16.727 16.727v99.436c0 9.244 7.483 16.727 16.727 16.727h99.436c9.244 0 16.727-7.483 16.727-16.727v-99.436zM578.45 723.069c0-9.244-7.483-16.727-16.727-16.727h-99.436c-9.244 0-16.727 7.483-16.727 16.727v99.436c0 9.244 7.483 16.727 16.727 16.727h99.436c9.244 0 16.727-7.483 16.727-16.727v-99.436zM788.931 302.108c0-9.244-7.483-16.727-16.727-16.727h-99.436c-9.244 0-16.727 7.483-16.727 16.727v99.436c0 9.244 7.483 16.727 16.727 16.727h99.436c9.244 0 16.727-7.483 16.727-16.727v-99.436zM788.931 512.588c0-9.244-7.483-16.727-16.727-16.727h-99.436c-9.244 0-16.727 7.483-16.727 16.727v99.436c0 9.244 7.483 16.727 16.727 16.727h99.436c9.244 0 16.727-7.483 16.727-16.727v-99.436zM788.931 723.069c0-9.244-7.483-16.727-16.727-16.727h-99.436c-9.244 0-16.727 7.483-16.727 16.727v99.436c0 9.244 7.483 16.727 16.727 16.727h99.436c9.244 0 16.727-7.483 16.727-16.727v-99.436z" />
<glyph unicode="&#xe932;" glyph-name="burn" d="M826.772 293.778c-4.593 47.397-18.233 96.899-39.45 143.143-19.249 42.116-44.508 82.402-75.016 119.64-8.571 10.519-17.28 20.593-21.778 25.238l-10.36 11.323c-2.529 2.899-4.656 5.228-6.762 7.291l-3.101 3.143c-3.386 3.407-6.878 6.942-9.778 10.476-0.222 0.286-0.466 0.561-0.72 0.836-1.407 1.545-2.921 3.090-4.614 4.815-2.201 2.233-4.698 4.72-6.921 7.513-0.286 0.349-0.582 0.688-0.878 1.037-15.788 17.354-29.069 33.132-40.582 48.201-13.481 17.746-23.005 32.423-30.921 47.725-9.164 17.429-16.021 36.825-20.36 57.799-4.116 18.995-6.519 40.794-7.164 64.868-0.635 21.376 0.667 41.915 2.011 59.048 0.974 11.407 2.074 21.503 3.153 30.423 0.836 6.952-1.82 13.873-7.101 18.476-5.291 4.614-12.508 6.317-19.27 4.529-10.095-2.635-20.444-6.127-30.688-10.36-21.513-8.772-42.677-20.974-62.931-36.307-25.831-19.608-48.466-43.831-67.259-71.947-23.069-34.36-39.397-74.772-47.196-116.73-8.899-46.169-7.915-98.265 2.751-146.603 10.127-46.794 29.735-94.582 56.783-138.339 14.296-22.783 28-41.831 41.566-57.82 4.042-5.026 15.175-18.021 15.291-18.169l4.444-5.090c3.111-3.524 5.333-6.18 7.598-8.889 2.095-2.487 3.82-4.55 5.746-6.603l0.328-0.339c21.164-25.312 36.085-43.894 48.402-60.339 13.608-18.095 25.577-35.64 36.571-53.608 11.714-19.196 20.085-35.979 26.328-52.751 7.048-19.079 11.683-39.757 13.831-61.545 1.979-19.175 1.989-40.677 0.053-65.608-1.947-22.614-5.471-43.228-8.243-58.328-2.074-10.328-4.106-19.862-5.958-28.095-1.566-6.974 0.476-14.275 5.46-19.397 4.032-4.159 9.513-6.413 15.196-6.413 1.344 0 2.698 0.127 4.042 0.381 9.937 1.947 19.503 4.487 28.974 7.704 22.116 7.196 43.937 17.661 64.783 31.026 27.048 17.101 51.45 39.026 72.54 65.111 25.566 31.619 45.534 69.577 57.735 109.735 13.683 44.677 18.349 94.434 13.46 143.799zM411.852 164.169c-8.815 19.28-20.349 37.693-34.222 54.614-3.492 4.286-7.714 9.206-9.778 11.344l-4.878 5.333c-1.27 1.429-2.19 2.423-3.164 3.407l-1.333 1.344c-1.545 1.545-3.090 3.122-4.402 4.688-0.233 0.275-0.476 0.561-0.73 0.825l-1.831 1.905c-1.069 1.101-2.116 2.169-3.016 3.291-0.233 0.286-0.476 0.571-0.73 0.847-6.974 7.651-12.974 14.772-18.254 21.661-4.466 5.915-9.64 13.122-14.212 21.926-4.18 7.958-7.291 16.783-9.291 26.402-1.862 8.646-2.952 18.593-3.249 29.566-0.265 9.111 0.243 17.725 0.656 23.407 0.54 7.503-2.952 14.741-9.175 18.984s-14.222 4.857-21.026 1.63c-7.831-3.735-15.524-8.434-22.889-14-11.788-8.963-22.116-20.011-30.667-32.815-7.344-10.931-17.048-29.069-21.545-53.228-4.074-21.122-3.64-44.931 1.228-66.963 4.624-21.386 13.577-43.217 25.968-63.27 6.529-10.381 12.772-19.069 18.783-26.159 1.767-2.19 5.598-6.624 7.302-8.603l-0.032-0.032 1.884-2.138c1.492-1.683 2.54-2.931 3.566-4.18 0.889-1.090 1.651-1.989 2.36-2.73l0.328-0.349c6.529-7.799 14.942-17.989 22.127-27.587 6.243-8.286 11.693-16.286 16.677-24.466 5.323-8.698 9.143-16.349 11.989-24.011 3.217-8.72 5.344-18.19 6.328-28.201 0.899-8.73 0.899-18.55 0.032-29.788-0.571-6.677-1.513-13.725-2.847-21.545-1.302-7.566 1.608-15.249 7.587-20.063 3.82-3.058 8.519-4.656 13.27-4.656 2.677 0 5.386 0.508 7.947 1.545 7.365 2.995 14.656 6.804 21.534 11.217 12.349 7.778 23.513 17.81 33.196 29.767 11.661 14.413 20.772 31.746 26.349 50.074 6.169 20.138 8.349 43.471 6.169 65.672-2.116 21.64-8.339 44.233-18.011 65.333z" />
<glyph unicode="&#xe933;" glyph-name="business-ascendant-graphic-line" d="M948.917 767.651c-32.365 0-59.919-20.62-70.443-49.373l-147.884-19.044c-13.782 16.504-34.487 27.028-57.615 27.028-41.378 0-75.083-33.694-75.083-75.083 0-16.74 5.584-32.162 14.886-44.669l-109.239-245.73c-7.020-0.772-13.75-2.54-20.062-5.133l-89.251 86.186c1.254 5.434 1.983 11.049 1.983 16.858 0 41.389-33.694 75.073-75.083 75.073s-75.073-33.684-75.073-75.073c0-7.631 1.157-14.993 3.29-21.948l-153.339-161.259c-6.655 1.95-13.653 3.033-20.92 3.033-41.389 0.011-75.083-33.694-75.083-75.073 0-41.4 33.694-75.094 75.083-75.094s75.073 33.694 75.073 75.094c0 8.584-1.522 16.794-4.19 24.478l151.667 159.512c7.395-2.454 15.282-3.815 23.481-3.815 10.010 0 19.548 2.015 28.293 5.584l89.423-86.347c-1.211-5.359-1.918-10.91-1.918-16.622 0-41.389 33.694-75.083 75.083-75.083s75.073 33.694 75.073 75.083c0 19.108-7.245 36.524-19.044 49.791l106.763 240.168c33.801 0.814 62.073 24.038 70.572 55.375l141.904 18.273c13.578-19.516 36.127-32.355 61.655-32.355 41.378 0 75.083 33.684 75.083 75.073s-33.705 75.094-75.083 75.094z" />
<glyph unicode="&#xe934;" glyph-name="business-stats-file" d="M939.223 960h-854.435c-11.695 0-21.186-9.491-21.186-21.186v-981.627c0-11.695 9.491-21.186 21.186-21.186h854.414c11.695 0 21.186 9.491 21.186 21.186v981.627c0.021 11.695-9.481 21.186-21.165 21.186zM540.4 462.152c4.449 0 8.686-1.939 11.61-5.307 2.934-3.369 4.227-7.85 3.591-12.256-13.337-91.578-93.199-160.624-185.773-160.624-103.654 0-187.997 84.332-187.997 187.987 0 95.656 71.79 175.91 167.001 186.673 4.311 0.53 8.697-0.89 11.96-3.792 3.263-2.924 5.127-7.097 5.127-11.462v-181.207l174.48-0.011zM390.21 485.214v190.052c0 2.352 0.975 4.597 2.68 6.197s3.994 2.426 6.356 2.278c101.303-6.674 180.126-88.231 183.368-189.724 0.074-2.299-0.784-4.523-2.394-6.176-1.589-1.642-3.792-2.574-6.091-2.574l-183.919-0.053zM848.037 64.877c0-8.771-7.108-15.89-15.89-15.89h-622.921c-8.782 0-15.89 7.119-15.89 15.89v60.921c0 8.771 7.108 15.89 15.89 15.89h622.921c8.782 0 15.89-7.119 15.89-15.89v-60.921zM848.037 243.732c0-8.761-7.108-15.89-15.89-15.89h-176.779c-8.782 0-15.89 7.129-15.89 15.89v60.921c0 8.771 7.108 15.89 15.89 15.89h176.779c8.782 0 15.89-7.119 15.89-15.89v-60.921zM848.037 381.327c0-8.771-7.108-15.89-15.89-15.89h-176.779c-8.782 0-15.89 7.119-15.89 15.89v133.347c0 8.771 7.108 15.89 15.89 15.89h176.779c8.782 0 15.89-7.119 15.89-15.89v-133.347zM848.037 591.347c0-8.771-7.108-15.89-15.89-15.89h-176.779c-8.782 0-15.89 7.119-15.89 15.89v60.921c0 8.771 7.108 15.89 15.89 15.89h176.779c8.782 0 15.89-7.119 15.89-15.89v-60.921zM848.037 770.202c0-8.771-7.108-15.89-15.89-15.89h-622.921c-8.782 0-15.89 7.119-15.89 15.89v60.921c0 8.771 7.108 15.89 15.89 15.89h622.921c8.782 0 15.89-7.119 15.89-15.89v-60.921z" />
<glyph unicode="&#xe935;" glyph-name="button-of-three-squares" d="M247.916 582.737h-226.358c-11.9 0-21.558-9.658-21.558-21.558v-226.358c0-11.9 9.658-21.558 21.558-21.558h226.358c11.9 0 21.558 9.658 21.558 21.558v226.358c0 11.9-9.647 21.558-21.558 21.558zM625.179 582.737h-226.358c-11.9 0-21.558-9.658-21.558-21.558v-226.358c0-11.9 9.658-21.558 21.558-21.558h226.358c11.9 0 21.558 9.658 21.558 21.558v226.358c0 11.9-9.647 21.558-21.558 21.558zM1002.442 582.737h-226.358c-11.9 0-21.558-9.658-21.558-21.558v-226.358c0-11.9 9.658-21.558 21.558-21.558h226.358c11.9 0 21.558 9.658 21.558 21.558v226.358c0 11.9-9.647 21.558-21.558 21.558z" />
<glyph unicode="&#xe936;" glyph-name="button-of-three-vertical-squares" d="M646.737 712.084v226.358c0 11.911-9.658 21.558-21.558 21.558h-226.358c-11.9 0-21.558-9.647-21.558-21.558v-226.358c0-11.911 9.658-21.558 21.558-21.558h226.358c11.9 0 21.558 9.647 21.558 21.558zM646.737 334.821v226.358c0 11.911-9.658 21.558-21.558 21.558h-226.358c-11.9 0-21.558-9.647-21.558-21.558v-226.358c0-11.911 9.658-21.558 21.558-21.558h226.358c11.9 0 21.558 9.647 21.558 21.558zM646.737-42.442v226.358c0 11.911-9.658 21.558-21.558 21.558h-226.358c-11.9 0-21.558-9.647-21.558-21.558v-226.358c0-11.911 9.658-21.558 21.558-21.558h226.358c11.9 0 21.558 9.647 21.558 21.558z" />
<glyph unicode="&#xe937;" glyph-name="calculator" d="M823.451 960h-622.903c-23.26 0-42.19-18.931-42.19-42.201v-939.598c0-23.27 18.931-42.201 42.19-42.201h622.903c23.26 0 42.19 18.931 42.19 42.201v939.598c0 23.27-18.931 42.201-42.19 42.201zM242.75 875.609h538.501v-436.245h-538.501v436.245zM357.4 1.137h-115.953v67.646h115.953v-67.646zM357.4 155.738h-115.953v67.636h115.953v-67.636zM357.4 310.349h-115.953v67.636h115.953v-67.636zM499.121 1.137h-115.964v67.646h115.964v-67.646zM499.121 155.738h-115.964v67.636h115.964v-67.636zM499.121 310.349h-115.964v67.636h115.964v-67.636zM640.843 1.137h-115.964v67.646h115.964v-67.646zM640.843 155.738h-115.964v67.636h115.964v-67.636zM640.843 310.349h-115.964v67.636h115.964v-67.636zM782.553 1.137h-115.964v67.646h115.964v-67.646zM782.553 155.738h-115.964v67.636h115.964v-67.636zM782.553 310.349h-115.964v67.636h115.964v-67.636zM282.086 831.007v-113.778l127.432 127.443h-113.767c-7.559 0-13.665-6.106-13.665-13.665z" />
<glyph unicode="&#xe938;" glyph-name="car-filled-frontal-transport" d="M991.458 550.642h-92.991l-70.793 287.073c-3.61 14.585-16.592 24.774-31.632 24.774h-568.084c-15.019 0-28.021-10.189-31.621-24.763l-70.783-287.083h-92.991c-17.957 0-32.562-14.616-32.562-32.562v-282.242c0-17.957 14.606-32.562 32.562-32.562h37.083v-137.18c0-17.957 14.606-32.552 32.562-32.552h114.527c17.957 0 32.562 14.595 32.562 32.552v137.17h525.395v-137.18c0-17.957 14.606-32.562 32.552-32.562h114.527c17.947 0 32.552 14.606 32.552 32.562v137.18h37.093c17.947 0 32.552 14.606 32.552 32.552v282.253c0.041 17.957-14.564 32.573-32.511 32.573zM182.114 300.393c-43.692 0-79.234 35.552-79.234 79.234s35.552 79.234 79.234 79.234 79.224-35.541 79.224-79.234-35.531-79.234-79.224-79.234zM302.63 736.873h418.74l41.034-185.91h-500.808l41.034 185.91zM840.086 300.393c-43.692 0-79.224 35.552-79.224 79.234s35.552 79.234 79.224 79.234c43.692 0 79.224-35.541 79.224-79.234s-35.541-79.234-79.224-79.234z" />
<glyph unicode="&#xe939;" glyph-name="characters-interface-button-with-oriental-sign" d="M235.801 421.972c-1.43-5.136-6.099-8.694-11.436-8.694h-76.655c-3.759 0-7.296 1.79-9.541 4.808-2.234 3.018-2.901 6.925-1.811 10.526l125.419 410.322c1.525 4.998 6.131 8.397 11.341 8.397h111.261c5.199 0 9.806-3.378 11.341-8.344l55.911-180.292h207.761v285.475c0 8.747-7.074 15.831-15.831 15.831h-627.73c-8.736 0-15.831-7.084-15.831-15.831v-627.73c0-8.747 7.095-15.82 15.831-15.82h285.57v224.068h-37.062l-28.538-102.716zM328.573 761.484l-3.103 12.432h-1.25c-2.584-10.367-5.178-21.846-7.815-33.536-3.907-17.335-7.931-35.167-12.167-50.204l-25.732-92.084h22.894v44.782c0 8.736 7.084 15.82 15.82 15.82h39.445l-9.276 31.567c-6.502 21.687-13.046 48.001-18.817 71.223zM1008.169 595.392h-627.74c-8.736 0-15.82-7.084-15.82-15.82v-627.74c0-8.747 7.084-15.831 15.82-15.831h627.74c8.736 0 15.831 7.084 15.831 15.831v627.74c0.011 8.736-7.084 15.82-15.831 15.82zM884.942 308.37c0-6.565-5.316-11.871-11.871-11.871l-55.435-0.021c-5.062-36.755-18.108-71.086-38.788-102.091 25.901-15.831 50.966-24.938 74.495-27.098 6.121-0.572 10.801-5.686 10.801-11.828v-95.218c0-3.251-1.324-6.375-3.706-8.598-2.203-2.086-5.125-3.261-8.164-3.261-0.222 0-0.413 0-0.625 0.021-67.231 3.569-124.042 35.252-159.866 61.185-39.074-26.018-87.202-47.080-132.016-57.764-3.113-0.752-6.417-0.201-9.149 1.546-2.721 1.747-4.617 4.522-5.231 7.688l-18.669 93.386c-1.228 6.152 2.531 12.167 8.598 13.808 31.958 8.524 137.999 42.971 161.359 128.214v0.021h-181.139c-6.544 0-11.871 5.305-11.871 11.871v94.985c0 6.555 5.326 11.871 11.871 11.871h119.404v56.208c0 6.555 5.316 11.871 11.871 11.871h94.996c6.544 0 11.86-5.316 11.86-11.871v-56.208h119.394c6.544 0 11.86-5.316 11.86-11.871v-94.975h0.021z" />
<glyph unicode="&#xe93a;" glyph-name="characters-interface-sign" d="M149.79 405.976c4.569-2.859 10.287-3.239 15.172-0.939l95.77 44.978c1.889-149.896-88.87-247.913-107.080-266.029-4.284-4.252-5.771-10.604-3.809-16.322l13.104-38.394c1.783-5.223 6.151-9.148 11.543-10.34 1.139-0.243 2.29-0.38 3.429-0.38 4.252 0 8.388 1.72 11.405 4.853 33.805 35.145 66.903 84.185 90.832 134.555l112.556-45.548c7.987-3.207 17.071 0.506 20.469 8.409l21.176 49.146c1.688 3.914 1.73 8.335 0.106 12.271-1.614 3.946-4.758 7.059-8.704 8.652l-117.019 47.352c6.879 25.786 22.79 91.56 21.977 145.074l86.148 41.887c5.444 2.648 8.894 8.156 8.905 14.212l0.074 51.815c0 5.434-2.775 10.488-7.364 13.4s-10.35 3.25-15.256 0.918l-252.059-119.942c-5.539-2.638-9.053-8.24-9.021-14.37l0.274-51.963c0.032-5.402 2.807-10.403 7.375-13.294zM691.227 326.718l74.679-32.138-38.131 177.085zM1010.685 516.422v415.365c0 9.496-4.78 18.369-12.735 23.581-7.955 5.233-17.989 6.077-26.683 2.321l-458.919-198.577-459.721 192.278c-8.704 3.767-18.738 2.901-26.694-2.311-7.945-5.212-12.724-14.085-12.724-23.592v-400.14c0-0.285-0.116-0.538-0.116-0.823v-547.704c0-9.496 4.78-18.369 12.724-23.581 4.674-3.070 10.065-4.621 15.489-4.621 3.798 0 7.618 0.77 11.205 2.321l459.742 198.936 459.235-211.544c3.587-1.54 7.407-2.321 11.205-2.321 5.423 0 10.815 1.562 15.489 4.632 7.945 5.212 12.724 14.075 12.724 23.571v547.736c0.011 1.192-0.084 2.743-0.222 4.474zM512.074 211.271l-442.544-191.487v486.214l442.903 191.656-0.359-486.383zM876.299 83.49c-2.901-2.49-6.573-3.788-10.266-3.788-2.121 0-4.241 0.422-6.257 1.287l-41.729 17.947c-4.611 1.984-7.998 6.014-9.137 10.899l-24.341 102.913-110.953 47.711-20.659-71.725c-1.245-4.368-4.326-7.976-8.43-9.918-4.115-1.941-8.842-2.026-13.020-0.222l-44.63 19.203c-7.396 3.176-11.216 11.395-8.915 19.108l105.688 350.963c1.298 4.315 4.389 7.881 8.472 9.781s8.778 1.973 12.946 0.19l54.59-23.476c4.516-1.941 7.892-5.877 9.084-10.646l112.651-444.295c1.456-5.845-0.506-12.017-5.096-15.932zM954.238 580.392l-368.372 149.030 368.372 159.402v-308.432z" />
<glyph unicode="&#xe93b;" glyph-name="chat-message-oval-outlined-speech-bubble" d="M512 894.576c-282.318 0-512-162.36-512-361.938 0-111.456 70.024-214.265 192.443-283.131-20.007-71.516-51.686-163.549-92.367-212.669-5.591-6.738-6.561-16.116-2.472-23.877 3.755-7.124 11.088-11.526 19.12-11.526l1.961 0.104c9.398 0.855 230.277 22.531 374.205 169.443 6.332-0.188 12.716-0.282 19.11-0.282 282.307 0 512 162.36 512 361.949 0 199.568-229.693 361.928-512 361.928zM285.186 232.629l17.462 63.828-58.164 31.554c-95.705 51.905-150.604 126.477-150.604 204.606 0 145.305 191.473 268.058 418.12 268.058 226.657 0 418.12-122.764 418.12-268.058s-191.463-268.048-418.12-268.048c-6.28 0-13.028 0.125-20.654 0.365l-37.197 1.22-25.765-26.85c-44.092-45.959-103.091-82.708-175.618-109.38 11.328 30.949 22.197 65.372 32.42 102.705z" />
<glyph unicode="&#xe93c;" glyph-name="chat-of-a-couple-of-filled-rectangular-speech-bubbles" d="M644.963 404.112c9.704 0 17.614 7.9 17.614 17.614v477.942c0 9.704-7.911 17.614-17.614 17.614h-627.348c-9.714 0-17.614-7.911-17.614-17.614v-477.942c0-9.714 7.911-17.614 17.614-17.614h233.249v-153.91c0-6.772 3.945-13.005 10.052-15.916 2.289-1.097 4.873-1.667 7.489-1.667 4.124 0 8.101 1.392 11.212 3.924l205.509 167.58 159.838-0.011zM1006.386 663.392h-307.651v-277.802c0-9.714-7.911-17.614-17.614-17.614h-159.848l-159.859-130.347v-69.793c0-9.704 7.911-17.614 17.614-17.614h46.209l205.509-167.58c3.122-2.521 7.099-3.924 11.212-3.924 2.616 0 5.189 0.58 7.478 1.667 6.118 2.901 10.052 9.155 10.052 15.916v153.921h346.899c9.714 0 17.614 7.911 17.614 17.614v477.931c0 9.725-7.9 17.625-17.614 17.625z" />
<glyph unicode="&#xe93d;" glyph-name="chat-oval-filled-speech-bubble" d="M512 893.216c-282.322 0-512-160.977-512-358.817 0-112.315 72.13-215.325 198.298-283.77-21.083-77.049-54.699-176.129-98.601-229.146-2.939-3.546-3.45-8.518-1.299-12.607 1.991-3.769 5.888-6.091 10.094-6.091 0.351 0 0.692 0.021 1.044 0.053 9.583 0.873 234.576 23.032 378.58 173.169 7.911-0.256 15.876-0.437 23.884-0.437 282.322 0 512 160.966 512 358.828 0 197.84-229.678 358.817-512 358.817z" />
<glyph unicode="&#xe93e;" glyph-name="chat-oval-filled-speech-bubbles" d="M834.538 558.272c0 161.243-187.192 292.424-417.264 292.424-230.093 0-417.274-131.181-417.274-292.424 0-91.519 58.791-175.467 161.607-231.259-17.181-62.769-44.577-143.552-80.356-186.734-2.395-2.895-2.822-6.945-1.062-10.277 1.614-3.061 4.79-4.977 8.226-4.977 0.281 0 0.573 0.021 0.854 0.042 7.81 0.708 191.17 18.795 308.522 141.115 6.456-0.198 12.943-0.323 19.472-0.323 230.082 0 417.274 131.171 417.274 292.414zM1024 478.541c0 107.252-82.834 201.114-205.977 252.012 46.066-52.273 72.911-114.344 72.911-180.955 0-185.151-206.653-335.815-460.654-335.815-0.146 0-0.312 0-0.458 0 53.751-17.691 113.698-27.657 176.914-27.657 6.529 0 13.016 0.125 19.472 0.333 117.363-122.351 300.723-140.397 308.533-141.115 0.271-0.031 0.552-0.042 0.854-0.042 3.426 0 6.612 1.895 8.216 4.957 1.77 3.343 1.343 7.393-1.062 10.267-35.779 43.182-63.164 123.944-80.356 186.755 102.806 55.771 161.607 139.74 161.607 231.259z" />
<glyph unicode="&#xe93f;" glyph-name="chatting-oval-speech-bubbles" d="M840.677 555.124c0 163.287-188.566 296.125-420.333 296.125-231.778 0-420.344-132.838-420.344-296.125 0-91.656 58.214-176.268 159.889-232.659-16.607-59.882-43.295-138.205-77.857-179.894-3.73-4.527-4.372-10.785-1.647-15.965 2.507-4.735 7.397-7.687 12.764-7.687l1.316 0.052c7.749 0.694 190.41 18.648 308.63 140.318 5.708-0.166 11.458-0.259 17.239-0.259 231.768-0.021 420.344 132.817 420.344 296.094zM420.333 341.891c-4.983 0-9.956 0.093-14.888 0.228l-36.406 1.036-25.382-26.118c-36.375-37.421-81.379-63.031-123.504-80.395 6.786 19.778 13.323 41.016 19.612 63.674l17.457 62.928-57.126 31.702c-74.49 41.306-117.215 99.696-117.215 160.179 0 115.589 154.543 213.244 337.452 213.244s337.441-97.655 337.441-213.244c0.021-115.568-154.512-213.233-337.441-213.233zM1024 475.796c0 106.71-82.415 200.096-204.935 250.737 45.833-52.008 72.542-113.765 72.542-180.039 0-184.214-205.608-334.116-458.324-334.116-0.145 0-0.311 0-0.456 0 53.479-17.602 113.123-27.517 176.019-27.517 6.496 0 12.95 0.124 19.374 0.332 116.77-121.732 299.202-139.686 306.972-140.401 0.269-0.031 0.549-0.041 0.85-0.041 3.408 0 6.579 1.886 8.174 4.931 1.761 3.326 1.336 7.356-1.057 10.215-35.598 42.964-62.845 123.317-79.949 185.81 102.286 55.489 160.79 139.034 160.79 230.089z" />
<glyph unicode="&#xe940;" glyph-name="checked-box" d="M1017.911 719.359l-75.363 75.363c-8.13 8.13-21.308 8.13-29.437 0l-387.818-387.797-138.349 138.339c-8.13 8.13-21.308 8.13-29.437 0l-75.363-75.363c-3.903-3.903-6.1-9.202-6.1-14.719s2.196-10.815 6.1-14.719l228.431-228.41c4.070-4.070 9.389-6.1 14.719-6.1 5.34 0 10.638 2.030 14.719 6.1l477.889 477.868c3.903 3.903 6.1 9.202 6.1 14.719s-2.186 10.815-6.089 14.719zM765.944 117.069h-661.852v661.862h677.622l88.323 83.274c0 11.492-9.327 20.819-20.819 20.819h-828.4c-11.492 0-20.819-9.327-20.819-20.819v-828.41c0-11.492 9.327-20.819 20.819-20.819h828.41c11.502 0 20.819 9.327 20.819 20.819v394.303l-104.093-109.297-0.010-201.731z" />
<glyph unicode="&#xe941;" glyph-name="checkmark-for-verification" d="M1016.877 777.917l-136.064 119.574c-4.175 3.692-9.724 5.57-15.2 5.182-5.549-0.367-10.731-2.916-14.403-7.102l-493.506-561.691-175.475 232.256c-3.346 4.427-8.329 7.353-13.836 8.109-5.497 0.818-11.109-0.671-15.535-4.039l-144.529-109.179c-9.242-6.986-11.077-20.141-4.091-29.382l324.913-430.043c3.797-5.025 9.672-8.088 15.966-8.318 0.252 0 0.514 0 0.766 0 6.021 0 11.77 2.581 15.766 7.133l657.127 747.896c7.658 8.696 6.808 21.966-1.899 29.602z" />
<glyph unicode="&#xe942;" glyph-name="checkmark-outline" d="M772.151 849.297v-690.121l-260.151 302.030-260.151-302.030v690.121h520.303zM838.573 960h-653.146c-24.454 0-44.281-19.827-44.281-44.281v-935.438c0-18.509 11.513-35.071 28.86-41.514 5.037-1.86 10.262-2.768 15.421-2.768 12.653 0 24.975 5.424 33.554 15.399l293.019 340.189 293.019-340.189c8.579-9.963 20.934-15.399 33.565-15.399 5.159 0 10.384 0.908 15.41 2.768 17.347 6.443 28.86 23.004 28.86 41.514v935.438c0 24.454-19.827 44.281-44.281 44.281v0z" />
<glyph unicode="&#xe943;" glyph-name="christmas-tree-silhouette" d="M825.083 338.625l-189.395 189.395h126.285c8.531 0 16.199 5.129 19.475 12.997 3.265 7.878 1.464 16.926-4.582 22.961l-188.005 188.015h88.915c0.084-0.011 0.169-0.011 0.211 0 11.638 0 21.065 9.437 21.065 21.065 0 6.72-3.149 12.702-8.047 16.557l-164.233 164.212c-8.226 8.226-21.56 8.226-29.786 0l-165.887-165.876c-6.025-6.025-7.826-15.083-4.571-22.961 3.265-7.868 10.943-12.997 19.464-12.997h88.915l-188.015-188.015c-6.025-6.025-7.826-15.083-4.571-22.961 3.265-7.868 10.943-12.997 19.464-12.997h126.295l-191.059-191.070c-6.025-6.025-7.826-15.093-4.571-22.971 3.265-7.868 10.943-12.987 19.464-12.987h247.808l-22.719-342.527c-0.379-5.824 1.654-11.544 5.645-15.788 3.981-4.245 9.542-6.678 15.377-6.678h107.726c0.084 0 0.169 0 0.221 0 11.628 0 21.065 9.437 21.065 21.065 0 1.517-0.169 2.96-0.453 4.371l-22.54 339.546h247.808c0.074-0.011 0.158-0.011 0.221 0 11.628 0 21.065 9.437 21.065 21.065-0.011 6.73-3.16 12.723-8.057 16.578z" />
<glyph unicode="&#xe944;" glyph-name="circle" d="M512-64c-282.319 0-512 229.681-512 512s229.681 512 512 512 512-229.681 512-512-229.681-512-512-512zM512 827.25c-209.114 0-379.25-170.137-379.25-379.25 0-209.103 170.137-379.25 379.25-379.25 209.103 0 379.25 170.147 379.25 379.25 0 209.114-170.147 379.25-379.25 379.25z" />
<glyph unicode="&#xe945;" glyph-name="circle-of-two-clockwise-arrows-rotation" d="M995.622 900.229c-8.142 3.385-17.514 1.513-23.73-4.724l-90.522-90.522c-97.129 99.97-226.893 155.017-365.419 155.017-29.303 0-58.857-2.558-87.822-7.587-197.165-34.267-356.917-181.871-406.968-376.054-1.687-6.52-0.25-13.443 3.864-18.766 4.126-5.323 10.472-8.436 17.21-8.436h138.657c9.133 0 17.308 5.704 20.443 14.292 40.591 110.954 141.422 195.619 256.871 215.681 19.017 3.298 38.371 4.964 57.561 4.964 91.741 0 177.419-36.727 241.305-103.41l-91.926-91.915c-6.215-6.226-8.077-15.588-4.724-23.719 3.385-8.142 11.31-13.443 20.116-13.443h306.758c12.017 0 21.771 9.753 21.771 21.771v306.747c0 8.795-5.323 16.731-13.443 20.105zM981.765 346.854h-138.646c-9.133 0-17.308-5.693-20.443-14.281-40.591-110.954-141.422-195.63-256.871-215.681-19.027-3.298-38.371-4.964-57.561-4.964-91.741 0-177.43 36.727-241.305 103.41l91.915 91.915c6.226 6.226 8.088 15.588 4.724 23.719-3.374 8.142-11.31 13.443-20.116 13.443h-306.736c-12.017 0-21.771-9.753-21.771-21.771v-306.758c0-8.806 5.301-16.742 13.443-20.116 8.12-3.374 17.493-1.502 23.719 4.735l90.522 90.511c97.118-99.96 226.882-155.017 365.408-155.017 29.314 0 58.868 2.558 87.833 7.587 197.154 34.245 356.917 181.871 406.968 376.054 1.687 6.531 0.25 13.432-3.853 18.777-4.136 5.312-10.493 8.436-17.231 8.436z" />
<glyph unicode="&#xe946;" glyph-name="circles-loader" d="M735.539 674.636c14.677-12.335 33.321-19.117 52.449-19.117 24.272 0 47.116 10.645 62.717 29.206 28.975 34.529 24.45 86.201-10.078 115.197-14.698 12.335-33.342 19.128-52.491 19.128-24.261 0-47.106-10.645-62.685-29.206-28.986-34.539-24.45-86.201 10.089-115.208zM928.518 581.055c-5.071 0-10.194-0.451-15.201-1.333-47.085-8.304-78.663-53.394-70.359-100.5 7.307-41.521 43.158-71.651 85.235-71.651 5.060 0 10.204 0.451 15.233 1.323 47.085 8.315 78.653 53.394 70.349 100.479-7.328 41.531-43.19 71.682-85.256 71.682zM925.505 297.423c-13.942 8.063-29.752 12.304-45.709 12.304-32.734 0-63.221-17.585-79.566-45.888-12.23-21.196-15.506-45.888-9.154-69.551s21.542-43.452 42.717-55.683c13.952-8.073 29.763-12.325 45.741-12.325 32.713 0 63.2 17.574 79.535 45.867 25.259 43.799 10.204 99.996-33.563 125.276zM664.708 134.354c-11.233 0-22.361-1.974-33.070-5.858-24.251-8.829-43.599-26.582-54.517-49.982-10.908-23.401-12.052-49.646-3.233-73.908 13.858-38.067 50.371-63.651 90.852-63.651 11.233 0 22.361 1.974 33.038 5.869 24.23 8.829 43.568 26.571 54.496 50.014 10.918 23.411 12.073 49.657 3.275 73.876-13.837 38.056-50.36 63.64-90.841 63.64zM418.912 133.189c-11.275 4.094-22.97 6.173-34.749 6.173-42.56 0-80.942-26.897-95.503-66.926-9.301-25.521-8.094-53.121 3.38-77.719 11.464-24.608 31.82-43.263 57.341-52.554 11.254-4.105 22.96-6.162 34.77-6.162 42.581 0 80.952 26.897 95.503 66.895 9.28 25.469 8.063 53.069-3.422 77.687-11.496 24.65-31.841 43.326-57.32 52.607zM261.575 271.314c-19.002 32.891-54.412 53.31-92.437 53.31-18.592 0-36.975-4.955-53.195-14.288-24.671-14.246-42.308-37.258-49.667-64.732-7.38-27.505-3.601-56.239 10.645-80.9 19.002-32.902 54.423-53.331 92.448-53.331 18.582 0 36.964 4.955 53.174 14.299 50.896 29.385 68.407 94.726 39.033 145.642zM120.677 382.69c54.15 0 100.311 38.791 109.738 92.238 5.165 29.364-1.396 58.969-18.498 83.356-17.081 24.419-42.654 40.712-72.029 45.898-6.509 1.134-13.091 1.711-19.527 1.711-54.15 0-100.311-38.781-109.738-92.227-5.165-29.343 1.396-58.948 18.498-83.367 17.091-24.408 42.675-40.712 72.029-45.888 6.477-1.144 13.049-1.722 19.527-1.722zM260.871 620.707c27.285 0 53.867 9.69 74.853 27.274 23.81 19.978 38.413 48.082 41.132 79.136s-6.792 61.268-26.781 85.078c-22.193 26.456-54.769 41.626-89.351 41.626-27.327 0-53.909-9.679-74.863-27.264-23.842-20.010-38.476-48.114-41.185-79.125-2.719-30.991 6.803-61.215 26.823-85.078 22.225-26.466 54.79-41.647 89.372-41.647zM651.217 833.223c0-70.017-56.76-126.777-126.777-126.777s-126.777 56.76-126.777 126.777c0 70.017 56.76 126.777 126.777 126.777s126.777-56.76 126.777-126.777z" />
<glyph unicode="&#xe947;" glyph-name="circle-with-irregular-shape-inside" d="M512 960c-282.323 0-512-229.677-512-512s229.677-512 512-512 512 229.677 512 512-229.677 512-512 512zM861.563 611.245c-25.679-43.221-108.812-57.252-250.772-76.804-38.561-5.308-73.921-20.86-90.186-49.433-7.734-13.584-8.031-27.169-0.936-42.71 20.297-44.444 66.996-76.261 112.142-107.036 14.627-9.978 28.381-19.329 41.678-29.381 44.987-34.030 119.78-115.142 80.718-178.702-27.509-44.742-130.354-105.791-244.932-102.472-185.201 5.372-360.116 128.981-393.869 317.193 0 0-6.808 38.498 29.041 35.359 40.785-3.574 106.993-44.072 155.341-73.049 117.971-70.74 139.587-45.891 143.97-37.104 15.552 31.19 2.074 72.336-11.414 104.696-5.202 12.51-11.946 25.115-19.073 38.508-20.786 38.976-44.338 83.154-34.072 136.3 8.489 43.923 46.21 65.124 76.506 82.176 13.233 7.425 25.711 14.446 33.647 21.903 18.52 17.403 28.53 42.317 29.541 72.059 1.968 58.103-45.678 102.249-37.466 129.63 7.627 25.435 56.199 18.892 57.060 18.839 142.193-9.85 264.441-87.005 319.044-201.37 0.181-0.33 17.169-36.466 4.032-58.603z" />
<glyph unicode="&#xe948;" glyph-name="clipboard" d="M909.708 430.975l-465.133 465.133c-85.181 85.181-223.79 85.181-308.971 0-82.47-82.47-84.866-214.844-7.708-300.487 1.182-1.519 2.25-3.083 3.635-4.456l366.224-366.246c58.007-57.973 152.37-57.984 210.365 0 58.018 58.018 58.018 152.393 0.034 210.388l-209.634 209.623c-20.254 20.266-53.123 20.254-73.378 0-20.277-20.254-20.288-53.101 0-73.378l209.623-209.623c17.554-17.565 17.554-46.113-0.011-63.644-17.565-17.565-46.113-17.565-63.644 0l-362.173 362.195c-44.74 44.751-44.729 117.521 0 162.284 44.762 44.729 117.521 44.729 162.261 0l465.145-465.145c72.624-72.624 72.624-190.809 0-263.421-72.612-72.624-190.786-72.624-263.421 0l-454.905 454.871c-20.254 20.254-53.101 20.266-73.366 0-20.266-20.254-20.254-53.112 0-73.378l454.894-454.882c113.088-113.088 297.077-113.11 410.165-0.034 113.099 113.11 113.088 297.122 0 410.199z" />
<glyph unicode="&#xe949;" glyph-name="clipboard-filled-with-text" d="M329.454 746.767h365.062c5.999 0 11.697 2.6 15.634 7.117 3.937 4.527 5.729 10.536 4.9 16.462l-15.385 110.491c-1.44 10.246-10.184 17.871-20.524 17.871h-77.484c-9.925 35.515-47.636 61.291-89.657 61.291-42.042 0-79.742-25.776-89.667-61.291h-77.484c-10.339 0-19.094-7.615-20.513-17.871l-15.375-110.502c-0.829-5.926 0.963-11.935 4.9-16.462 3.895-4.507 9.604-7.107 15.592-7.107zM941.937 895.653c0 11.438-9.283 20.72-20.72 20.72h-134.682c-11.438 0-20.72-9.283-20.72-20.72v-170.756c0-11.427-9.283-20.72-20.72-20.72h-466.208c-11.438 0-20.72 9.293-20.72 20.72v170.756c0 11.438-9.283 20.72-20.72 20.72h-134.682c-11.438 0-20.72-9.283-20.72-20.72v-938.933c0-11.438 9.283-20.72 20.72-20.72h818.475c5.481 0 10.764 2.186 14.649 6.071s6.071 9.158 6.071 14.649l-0.021 938.933zM666.905 479.63c0-8.578-6.962-15.54-15.54-15.54h-87.471v-325.133c0-8.578-6.962-15.54-15.54-15.54h-72.708c-8.578 0-15.54 6.962-15.54 15.54v325.133h-87.471c-8.578 0-15.54 6.962-15.54 15.54v54.671c0 8.578 6.962 15.54 15.54 15.54h278.73c8.578 0 15.54-6.962 15.54-15.54v-54.671z" />
<glyph unicode="&#xe94a;" glyph-name="clipboard-rotated-interface-tool" d="M992.973 625.421l-114.891 70.591c1.663 24.396-5.752 48.728-20.836 68.134-1.345 37.181-12.383 100.75-68.092 134.975-20.752 12.754-44.204 19.216-69.723 19.216-32.065 0-61.503-10.243-81.449-19.459-24.194 4.724-49.278 0.307-70.2-12.182l-114.891 70.602c-8.803 5.392-21.091 2.436-26.493-6.335l-401.717-653.744c-5.54-9.046-2.712-20.932 6.335-26.493l540.082-331.867c3.040-1.875 6.515-2.86 10.074-2.86 6.758 0 12.892 3.422 16.43 9.174l401.706 653.734c5.551 9.046 2.733 20.932-6.335 26.514zM615.843 168.208l-30.995-50.444c-2.203-3.602-5.741-6.165-9.841-7.15-1.218-0.275-2.458-0.434-3.708-0.434-2.902 0-5.794 0.805-8.315 2.362l-373.285 229.369c-7.479 4.608-9.82 14.375-5.222 21.853l30.995 50.444c2.203 3.591 5.741 6.165 9.841 7.14 4.121 0.975 8.432 0.286 12.012-1.917l373.296-229.38c7.479-4.587 9.809-14.375 5.222-21.843zM714.251 328.363l-30.995-50.454c-2.203-3.591-5.741-6.165-9.851-7.14-1.208-0.275-2.447-0.434-3.697-0.434-2.913 0-5.794 0.805-8.315 2.362l-373.296 229.369c-7.479 4.597-9.82 14.375-5.222 21.853l30.995 50.444c2.203 3.591 5.741 6.165 9.841 7.14 4.121 0.964 8.432 0.275 12.012-1.917l373.296-229.38c7.489-4.587 9.82-14.375 5.233-21.843zM812.66 488.507l-30.995-50.444c-2.998-4.883-8.21-7.574-13.548-7.574-2.839 0-5.71 0.752-8.305 2.352l-373.296 229.38c-7.479 4.597-9.82 14.375-5.222 21.853l30.995 50.444c2.203 3.591 5.741 6.165 9.841 7.14 4.121 0.964 8.421 0.286 12.012-1.917l373.296-229.38c3.591-2.203 6.165-5.741 7.14-9.851 0.964-4.11 0.286-8.411-1.917-12.002zM809.027 688.937c-8.263-13.442-22.68-21.472-38.527-21.472-8.284 0-16.43 2.299-23.516 6.663l-139.477 85.708c-21.186 13.019-27.828 40.846-14.798 62.032 8.252 13.453 22.658 21.472 38.505 21.472 5.582 0 11.059-1.028 16.239-3.051l4.417-1.716 4.163 2.267c12.298 6.705 36.853 17.944 63.070 17.944 14.491 0 27.573-3.527 38.876-10.466 37.425-22.997 40.010-73.621 39.385-94.32l-0.148-4.735 3.527-3.167c16.207-14.534 19.692-38.58 8.284-57.16zM741.475 821.508c-5.837 3.58-12.531 5.477-19.332 5.477-12.976 0-24.756-6.599-31.556-17.627-5.159-8.421-6.758-18.347-4.46-27.955 2.288-9.608 8.188-17.743 16.61-22.923 5.837-3.58 12.521-5.477 19.332-5.477 12.966 0 24.756 6.599 31.535 17.627 5.169 8.411 6.758 18.336 4.47 27.955-2.277 9.608-8.178 17.754-16.599 22.923z" />
<glyph unicode="&#xe94b;" glyph-name="clock-circular-outline" d="M512 960c-282.317 0-512-229.683-512-512s229.683-512 512-512 512 229.683 512 512-229.683 512-512 512zM512 44.945c-222.243 0-403.066 180.802-403.066 403.055s180.823 403.055 403.066 403.055 403.066-180.802 403.066-403.055-180.823-403.055-403.066-403.055zM778.834 463.809h-230.094v276.657c0 23.281-18.876 42.157-42.157 42.157s-42.157-18.876-42.157-42.157v-318.814c0-23.281 18.876-42.157 42.157-42.157h272.252c23.281 0 42.157 18.876 42.157 42.157s-18.876 42.157-42.157 42.157z" />
<glyph unicode="&#xe94c;" glyph-name="clock-with-circular-arrow" d="M510.987 960c-142.63 0-274.879-57.126-372.409-160.855l-107.618 43.476c-7.19 2.898-15.436 1.754-21.569-3.028-6.133-4.793-9.249-12.495-8.159-20.197l46.984-334.020c1.089-7.713 6.198-14.26 13.41-17.168 7.212-2.919 15.436-1.743 21.569 3.028l265.804 207.665c6.133 4.793 9.249 12.484 8.159 20.197s-6.198 14.26-13.41 17.168l-94.513 38.182c72.628 62.301 165.583 96.615 261.752 96.615 222.252 0 403.064-180.812 403.064-403.064s-180.812-403.064-403.064-403.064c-146.922 0-282.177 79.796-352.986 208.253-5.599 10.164-18.203 14.151-28.628 9.063l-58.815-28.683c-5.338-2.604-9.39-7.277-11.199-12.942s-1.231-11.809 1.601-17.027c89.524-165.060 261.97-267.602 450.026-267.602 282.319 0 512 229.681 512 512s-229.681 512-512 512zM791.498 377.191h-281.393c-24.064 0-43.574 19.51-43.574 43.574v329.532c0 24.064 19.51 43.574 43.574 43.574s43.574-19.51 43.574-43.574v-285.957h237.819c24.064 0 43.574-19.51 43.574-43.574s-19.51-43.574-43.574-43.574z" />
<glyph unicode="&#xe94d;" glyph-name="cloud-filled-shape" d="M967.165 396.628c3.841 16.967 6.050 34.551 6.050 52.659 0 131.37-106.49 237.882-237.871 237.882-26.010 0-50.984-4.323-74.399-12.037-57.589 87.158-156.376 144.695-268.665 144.695-177.728 0-321.816-144.077-321.816-321.816 0-28.177 3.653-55.506 10.446-81.558-48.849-33.651-80.909-89.911-80.909-153.707 0-103.036 83.516-186.562 186.562-186.562h650.875c103.057 0 186.562 83.526 186.562 186.562 0 52.575-21.813 99.98-56.835 133.882z" />
<glyph unicode="&#xe94e;" glyph-name="cocktail-glass-silhouette" d="M586.651 506.704l306.475 416.655c5.144 7.002 5.906 16.28 1.997 24.012-3.92 7.764-11.856 12.629-20.533 12.629h-725.171c-8.688 0-16.613-4.865-20.533-12.629-3.92-7.743-3.146-17.010 2.008-24.012l306.486-416.655c0.419-0.58 0.87-1.128 1.342-1.665v-493.663h-105.283c-12.715 0-23.013-10.299-23.013-23.024v-29.36c0-12.715 10.299-23.003 23.013-23.003h357.13c12.715 0 23.013 10.288 23.013 23.003v29.36c0 12.725-10.299 23.024-23.013 23.024h-105.283v493.663c0.483 0.526 0.934 1.085 1.364 1.665z" />
<glyph unicode="&#xe94f;" glyph-name="code-programming-file" d="M868.856 780.775l-171.761 171.497c-4.952 4.952-11.656 7.728-18.666 7.728h-504.62c-14.58 0-26.394-11.814-26.394-26.394v-971.212c0-14.58 11.814-26.394 26.394-26.394h676.381c14.58 0 26.394 11.814 26.394 26.394v799.715c0 7-2.777 13.714-7.728 18.666zM465.198 309.823c2.967-2.967 4.635-7 4.635-11.202s-1.668-8.224-4.635-11.212l-27.407-27.418c-2.967-2.956-7-4.624-11.202-4.624s-8.224 1.668-11.202 4.624l-176.744 176.808c-6.187 6.187-6.187 16.206 0 22.393l176.765 176.776c5.944 5.944 16.459 5.944 22.393 0l27.407-27.407c2.967-2.967 4.635-7 4.635-11.202s-1.668-8.224-4.635-11.202l-138.188-138.156 138.177-138.177zM785.367 436.798l-176.776-176.776c-2.956-2.967-6.989-4.635-11.202-4.635s-8.224 1.668-11.202 4.635l-27.407 27.407c-2.967 2.967-4.635 7-4.635 11.202s1.668 8.224 4.635 11.212l138.199 138.167-138.167 138.167c-2.967 2.967-4.635 7-4.635 11.202s1.668 8.224 4.635 11.202l27.407 27.407c2.967 2.967 6.989 4.635 11.202 4.635s8.224-1.668 11.202-4.635l176.776-176.776c6.155-6.197 6.155-16.227-0.032-22.414zM655.108 724.123c-3.558 0-6.947 1.415-9.46 3.927-2.502 2.513-3.927 5.923-3.927 9.47l0.021 159.694 173.091-173.091h-159.726z" />
<glyph unicode="&#xe950;" glyph-name="code-programming-signs" d="M483.682 452.638c0 5.723-2.278 11.219-6.328 15.268l-353.783 353.751c-8.433 8.433-22.103 8.433-30.537 0l-86.707-86.697c-4.049-4.038-6.328-9.545-6.328-15.257 0-5.723 2.278-11.219 6.328-15.268l251.797-251.797-251.797-251.808c-4.049-4.049-6.328-9.545-6.328-15.268s2.278-11.219 6.328-15.268l86.707-86.697c4.222-4.222 9.74-6.328 15.268-6.328s11.046 2.106 15.268 6.328l353.783 353.783c4.049 4.038 6.328 9.513 6.328 15.257zM1002.415 206.186h-549.118c-11.921 0-21.596-9.675-21.596-21.596v-94.989c0-11.921 9.675-21.596 21.596-21.596h549.118c11.921 0 21.596 9.675 21.596 21.596v94.989c0 11.921-9.675 21.596-21.596 21.596z" />
<glyph unicode="&#xe951;" glyph-name="code-sign" d="M1017.535 463.601l-344.838 344.849c-8.617 8.617-22.596 8.617-31.201 0l-74.241-74.23c-4.137-4.137-6.465-9.753-6.465-15.601s2.328-11.463 6.465-15.601l255.029-255.018-255.007-255.029c-4.137-4.137-6.465-9.753-6.465-15.601s2.328-11.474 6.465-15.612l74.252-74.23c4.314-4.303 9.952-6.454 15.601-6.454s11.298 2.151 15.612 6.465l344.805 344.86c8.617 8.617 8.617 22.585-0.011 31.201zM201.717 448l255.018 255.018c4.137 4.137 6.465 9.753 6.465 15.601s-2.328 11.463-6.465 15.601l-74.23 74.23c-8.617 8.617-22.596 8.617-31.201 0l-344.838-344.849c-4.137-4.137-6.465-9.753-6.465-15.601s2.328-11.463 6.465-15.601l344.893-344.849c4.137-4.137 9.753-6.465 15.612-6.465 5.848 0 11.463 2.328 15.601 6.465l74.186 74.23c8.617 8.617 8.617 22.607 0 31.201l-255.040 255.018z" />
<glyph unicode="&#xe952;" glyph-name="collapse-rectangular-filled-button-of-interface" d="M826.931 51.361c-5.202-5.202-12.772-7.244-19.89-5.328-7.097 1.895-12.646 7.444-14.541 14.541l-50.541 188.898c-1.895 7.097 0.105 14.689 5.328 19.89 5.202 5.191 12.772 7.244 19.869 5.328l188.846-50.626c7.097-1.906 12.646-7.444 14.562-14.552 1.906-7.097-0.147-14.689-5.328-19.89l-32.631-32.62 91.406-114.897v811.8l-91.417-114.887 32.631-32.61c5.18-5.202 7.234-12.804 5.328-19.89-1.916-7.107-7.465-12.646-14.562-14.552l-188.846-50.615c-7.097-1.916-14.668 0.126-19.869 5.328-5.223 5.202-7.223 12.783-5.328 19.88l50.552 188.877c1.895 7.097 7.444 12.646 14.541 14.552 7.128 1.916 14.699-0.126 19.901-5.328l32.652-32.641 116.235 92.438h-927.655l116.245-92.438 32.641 32.641c5.202 5.202 12.772 7.244 19.89 5.328 7.097-1.906 12.646-7.455 14.541-14.552l50.552-188.877c1.895-7.097-0.105-14.678-5.328-19.88-5.202-5.202-12.772-7.244-19.869-5.328l-188.835 50.626c-7.097 1.906-12.646 7.444-14.562 14.552-1.895 7.086 0.147 14.689 5.328 19.89l32.62 32.61-91.396 114.887v-811.789l91.396 114.897-32.62 32.599c-5.18 5.202-7.223 12.793-5.328 19.89 1.916 7.107 7.465 12.646 14.562 14.552l188.835 50.626c7.097 1.916 14.668-0.137 19.869-5.328 5.223-5.202 7.223-12.793 5.328-19.89l-50.552-188.877c-1.895-7.097-7.444-12.646-14.541-14.562-7.118-1.916-14.689 0.126-19.89 5.328l-32.641 32.652-116.245-92.459h927.645l-116.245 92.428-32.641-32.62z" />
<glyph unicode="&#xe953;" glyph-name="compass" d="M512 960c-282.774 0-512-229.226-512-512s229.226-512 512-512c282.785 0 512 229.226 512 512s-229.215 512-512 512zM512 43.678c-222.948 0-404.322 181.384-404.322 404.322s181.373 404.322 404.322 404.322 404.322-181.384 404.322-404.322-181.373-404.322-404.322-404.322zM836.284 637.923c-2.692 4.609-8.13 6.816-13.255 5.416l-363.77-99.204c-2.003-0.56-3.823-1.626-5.298-3.101l-264.49-268.722c-3.726-3.812-4.458-9.637-1.766-14.214 2.692-4.609 8.13-6.838 13.266-5.427l363.77 99.215c1.001 0.258 1.96 0.668 2.853 1.184 0.894 0.528 1.712 1.163 2.455 1.917l264.48 268.733c3.726 3.78 4.447 9.616 1.755 14.203zM287.555 316.557l177.239 180.092 66.534-113.611-243.773-66.481z" />
<glyph unicode="&#xe954;" glyph-name="compressed-zip-file" d="M516.751 293.173h-30.649c-19.7 0-35.653-15.974-35.653-35.685 0-19.7 15.952-35.685 35.653-35.685h30.649c19.722 0 35.685 15.984 35.685 35.685 0 19.711-15.963 35.685-35.685 35.685zM868.856 780.511l-171.761 171.761c-4.952 4.952-11.656 7.728-18.666 7.728h-222.638v-19.563h45.651v-57.296h-45.651v-23.723h-32.222v100.582h-249.76c-14.58 0-26.394-11.814-26.394-26.394v-971.212c0-14.58 11.814-26.394 26.394-26.394h676.381c14.58 0 26.394 11.814 26.394 26.394v799.451c0 7-2.777 13.714-7.728 18.666zM501.442 856.304h45.651v23.723h32.222v-104.721h-32.222v23.723h-45.651v57.275zM501.442 461.64v57.275h45.651v23.723h32.222v-104.71h-32.222v23.723l-45.651-0.011zM547.093 606.057v23.712h-45.651v57.296h45.651v23.712h32.222v-104.71l-32.222-0.011zM423.57 794.89h32.222v-23.712h45.651v-57.285h-45.651v-23.723h-32.222v104.721zM423.57 626.771h32.222v-23.723h45.651v-57.275h-45.651v-23.723h-32.222v104.721zM501.442 198.145c-45.26 0-81.948 35.072-81.948 87.987 0 136.319 36.688 134.915 81.948 134.915s81.948 1.394 81.948-134.915c0-52.915-36.688-87.987-81.948-87.987zM655.108 724.123c-3.558 0-6.947 1.415-9.46 3.927-2.502 2.513-3.927 5.923-3.927 9.47l0.021 159.694 173.091-173.091h-159.726z" />
<glyph unicode="&#xe955;" glyph-name="contrast-circular-button" d="M512 960c-282.764 0-512-229.236-512-512 0-282.753 229.236-512 512-512 282.753 0 512 229.247 512 512 0 282.764-229.247 512-512 512zM512 67.917c-209.914 0-380.083 170.169-380.083 380.083s170.169 380.083 380.083 380.083v-760.166z" />
<glyph unicode="&#xe956;" glyph-name="copy-interface-outlined-sign" d="M895.429 536.574l-122.142 122.163c-3.516 3.516-8.288 5.501-13.271 5.501h-118.383v154.818c0 4.994-1.985 9.755-5.501 13.271l-122.131 122.173c-3.526 3.516-8.298 5.501-13.282 5.501h-358.877c-10.368 0-18.772-8.404-18.772-18.772v-690.705c0-10.357 8.404-18.772 18.772-18.772h240.515v-276.97c0-10.368 8.404-18.772 18.761-18.772h481.029c10.368 0 18.772 8.404 18.772 18.772v568.531c0.021 4.973-1.964 9.745-5.49 13.26zM183.144 899.927h291.952l0.148-96.518c0-2.523 1.014-4.952 2.798-6.746 1.784-1.784 4.202-2.787 6.736-2.787h96.814v-502.081h-398.447v608.133zM840.877-3.969h-398.447v235.711h180.452c10.357 0 18.75 8.393 18.75 18.761v353.661h92.728l0.158-96.518c0-2.523 1.014-4.952 2.798-6.746 1.795-1.784 4.213-2.787 6.746-2.787h96.814v-502.081z" />
<glyph unicode="&#xe957;" glyph-name="credit-or-debit-card" d="M1003.102 775.346h-982.204c-11.536 0-20.898-9.362-20.898-20.898v-106.412h1024v106.412c0 11.546-9.362 20.898-20.898 20.898zM0 141.552c0-11.536 9.362-20.898 20.898-20.898h982.204c11.536 0 20.898 9.362 20.898 20.898v345.266h-1024v-345.266zM396.163 276.386c0 5.778 4.681 10.449 10.449 10.449h81.669c5.768 0 10.449-4.671 10.449-10.449v-96.987c0-5.778-4.681-10.449-10.449-10.449h-81.669c-5.768 0-10.449 4.671-10.449 10.449v96.987zM228.3 276.386c0 5.778 4.681 10.449 10.449 10.449h81.669c5.768 0 10.449-4.671 10.449-10.449v-96.987c0-5.778-4.681-10.449-10.449-10.449h-81.669c-5.768 0-10.449 4.671-10.449 10.449v96.987zM60.426 276.386c0 5.778 4.681 10.449 10.449 10.449h81.669c5.768 0 10.449-4.671 10.449-10.449v-96.987c0-5.778-4.681-10.449-10.449-10.449h-81.669c-5.768 0-10.449 4.671-10.449 10.449v96.987z" />
<glyph unicode="&#xe958;" glyph-name="cropping-tool-button-of-interface" d="M1003.367 268.072h-142.4v434.706l151.395 151.416c8.067 8.057 8.067 21.129 0 29.196l-65.694 65.705c-3.861 3.872-9.114 6.051-14.593 6.051s-10.721-2.179-14.603-6.051l-151.891-151.934-433.25 0.011v141.979c0 11.4-9.243 20.654-20.654 20.654h-135.184c-11.411 0-20.643-9.243-20.643-20.654v-141.979h-135.206c-11.4 0-20.643-9.243-20.643-20.643v-135.195c0-11.4 9.243-20.654 20.643-20.654h135.195v-440.854c0-48.653 39.582-88.236 88.246-88.236h440.401v-134.753c0-11.411 9.232-20.654 20.643-20.654h135.195c0.086 0 0.151 0 0.216 0 11.411 0 20.643 9.243 20.643 20.654 0 0.992-0.086 1.974-0.216 2.934l-0.011 131.809h142.389c11.4 0 20.643 9.243 20.643 20.643v135.206c0.022 11.389-9.232 20.643-20.622 20.643zM684.497 526.297v-258.224h-258.235l258.235 258.224zM589.089 620.68l-256.758-256.758v256.779l256.758-0.022z" />
<glyph unicode="&#xe959;" glyph-name="cross" d="M603.347 448l413.965 413.943c8.91 8.921 8.91 23.376 0 32.297l-59.039 59.072c-4.283 4.272-10.108 6.688-16.159 6.688-6.062 0-11.877-2.416-16.159-6.688l-413.954-413.954-413.954 413.954c-8.576 8.576-23.754 8.565-32.308 0l-59.028-59.072c-8.921-8.921-8.921-23.376 0-32.297l413.954-413.943-413.954-413.943c-8.921-8.921-8.921-23.376 0-32.297l59.039-59.072c4.283-4.272 10.097-6.688 16.159-6.688s11.866 2.416 16.149 6.688l413.954 413.954 413.954-413.954c4.283-4.272 10.108-6.688 16.159-6.688s11.877 2.416 16.159 6.688l59.039 59.072c8.91 8.921 8.91 23.376 0 32.297l-413.975 413.943z" />
<glyph unicode="&#xe95a;" glyph-name="cross-circular-button" d="M874.033 810.033c-199.938 199.949-524.139 199.949-724.077 0-199.949-199.938-199.949-524.139 0-724.077 199.938-199.949 524.139-199.949 724.077 0 199.959 199.959 199.959 524.139 0 724.077zM840.648 256.786c6.351-6.351 6.351-16.618 0-22.97l-114.443-114.454c-6.351-6.351-16.629-6.351-22.98 0l-191.225 191.225-191.214-191.225c-6.351-6.351-16.629-6.351-22.98 0l-114.443 114.454c-6.351 6.351-6.351 16.618 0 22.97l191.214 191.214-191.214 191.225c-6.351 6.351-6.351 16.629 0 22.98l114.443 114.443c6.351 6.351 16.629 6.351 22.98 0l191.214-191.214 191.214 191.214c6.351 6.351 16.629 6.351 22.98 0l114.443-114.443c6.351-6.351 6.351-16.629 0-22.98l-191.203-191.225 191.214-191.214z" />
<glyph unicode="&#xe95b;" glyph-name="crosshair-target-interface" d="M1002.887 492.211h-79.365c-20.501 192.322-174.988 346.809-367.31 367.32v79.355c0 11.655-9.459 21.113-21.113 21.113h-46.196c-11.655 0-21.113-9.459-21.113-21.113v-79.355c-192.322-20.512-346.809-174.998-367.32-367.32h-79.355c-11.655 0-21.113-9.459-21.113-21.113v-46.207c0-11.655 9.459-21.113 21.113-21.113h79.355c20.512-192.311 174.998-346.798 367.32-367.299v-79.365c0-11.655 9.459-21.113 21.113-21.113h46.207c11.655 0 21.113 9.459 21.113 21.113v79.365c192.311 20.501 346.798 174.988 367.299 367.31h79.365c11.655 0 21.113 9.459 21.113 21.113v46.196c0 11.665-9.459 21.113-21.113 21.113zM262.82 403.789c11.655 0 21.113 9.459 21.113 21.113v46.196c0 11.655-9.459 21.113-21.113 21.113h-68.534c19.593 141.428 132.064 253.91 273.492 273.503v-68.534c0-11.655 9.459-21.113 21.113-21.113h46.196c11.655 0 21.113 9.459 21.113 21.113v68.534c141.449-19.593 253.92-132.064 273.514-273.503h-68.534c-11.655 0-21.113-9.459-21.113-21.113v-46.207c0-11.655 9.459-21.113 21.113-21.113h68.534c-19.593-141.428-132.064-253.899-273.492-273.514v68.534c0 11.655-9.459 21.113-21.113 21.113h-46.207c-11.655 0-21.113-9.459-21.113-21.113v-68.534c-141.439 19.614-253.91 132.085-273.503 273.524h68.534z" />
<glyph unicode="&#xe95c;" glyph-name="cross-remove-sign" d="M670.495 447.995l347.239 347.25c8.336 8.336 8.336 21.849 0 30.185l-128.284 128.316c-4.003 4.003-9.446 6.255-15.092 6.255-5.657 0-11.090-2.252-15.092-6.255l-347.261-347.261-347.261 347.261c-8.005 8.005-22.179 8.005-30.185 0l-128.295-128.316c-8.336-8.336-8.336-21.849 0-30.185l347.25-347.25-347.25-347.25c-8.336-8.336-8.336-21.849 0-30.185l128.295-128.306c4.003-4.003 9.435-6.255 15.092-6.255s11.090 2.252 15.092 6.255l347.261 347.261 347.261-347.261c4.003-4.003 9.435-6.255 15.092-6.255 5.646 0 11.090 2.252 15.092 6.255l128.295 128.306c8.336 8.336 8.336 21.859 0 30.185l-347.25 347.25z" />
<glyph unicode="&#xe95d;" glyph-name="cube" d="M1007.829 733.338l-488.069 178.768c-5.073 1.784-10.734 1.752-15.797 0l-487.183-173.812c-4.935-1.752-9.175-4.956-11.258-8.235-3.546-4.304-5.522-9.752-5.522-15.338v-540.096c0-10.232 6.483-19.365 16.15-22.74l487.46-168.002c5.063-1.752 10.734-1.752 15.797 0l487.567 168.247c10.179 3.119 17.026 12.358 17.026 23.007v535.493c0.011 10.243-6.483 19.365-16.171 22.708zM512.24 565.828l-367.747 126.912 367.374 132.178 348.436-130.202-348.062-128.888zM939.032 215.768l-374.658-126.773v401.831l374.658 137.347v-412.405z" />
<glyph unicode="&#xe95e;" glyph-name="cubes-stack" d="M1015.747 407.75l-242.876 88.954v270.731c0 5.22-3.308 9.87-8.253 11.582l-248.666 91.078c-2.578 0.909-5.474 0.888-8.052 0l-248.201-88.563c-2.504-0.888-4.66-2.515-5.727-4.206-1.818-2.187-2.821-4.977-2.821-7.799v-272.707l-242.601-86.545c-2.504-0.898-4.66-2.526-5.727-4.216-1.818-2.187-2.821-4.977-2.821-7.809v-275.201c0-5.178 3.308-9.849 8.221-11.56l248.349-85.594c2.589-0.888 5.474-0.888 8.063 0l247.367 85.192 246.849-85.192c2.578-0.888 5.474-0.888 8.063 0l248.413 85.7c5.167 1.585 8.665 6.298 8.665 11.719v272.855c0 5.22-3.286 9.87-8.242 11.582zM729.578 515.313l-190.875-64.597v204.718l190.875 70.007v-210.128zM511.915 825.67l177.539-66.33-177.327-65.675-187.356 64.66 187.144 67.345zM260.988 322.388l-187.356 64.66 187.155 67.345 177.539-66.33-177.338-65.675zM478.439 144.046l-190.885-64.608v204.718l190.885 70.007v-210.117zM763.255 322.388l-187.356 64.66 187.155 67.345 177.549-66.33-177.349-65.675zM980.706 144.046l-190.885-64.608v204.718l190.875 70.007v-210.117z" />
<glyph unicode="&#xe95f;" glyph-name="curved-up-arrow" d="M57.908 617.234h137.444c10.969 0 19.865-8.906 19.865-19.865v-305.367h-0.075v-14.321c0-90.816 73.873-164.7 164.7-164.7 90.805 0 164.7 73.884 164.7 164.7l0.269 369.55-142.354-142.912c-7.381-7.381-20.434-7.381-27.805 0l-88.807 88.818c-3.685 3.685-5.759 8.702-5.759 13.902 0 5.211 2.074 10.217 5.759 13.902l333.268 333.279c7.682 7.703 20.123 7.703 27.805 0l333.29-333.268c7.671-7.682 7.671-20.123 0-27.805l-88.796-88.818c-3.674-3.685-8.692-5.759-13.892-5.759-5.211 0-10.217 2.074-13.913 5.759l-141.838 142.912-0.236-369.55c0-188.412-153.28-341.702-341.691-341.702s-341.702 153.28-341.702 341.691l-0.097 319.688c0 10.959 8.885 19.865 19.865 19.865z" />
<glyph unicode="&#xe960;" glyph-name="database" d="M1023.73 768.755c0.021 0.654 0.166 1.286 0.166 1.95 0 100.462-229.183 181.898-511.886 181.898-282.713 0-511.886-81.436-511.886-181.898 0-0.664 0.135-1.297 0.156-1.95-0.104-0.083-0.176-0.156-0.259-0.218v-153.494c84.32-70.886 281.811-120.619 511.99-120.619s427.669 49.733 512 120.619v153.484c-0.104 0.073-0.187 0.145-0.28 0.228zM1013.418 473.717c-6.525 3.683-14.524 3.538-20.966-0.363-99.622-60.647-283.719-98.315-480.453-98.315s-380.831 37.668-480.453 98.315c-6.411 3.901-14.42 4.056-20.956 0.363-6.546-3.672-10.592-10.592-10.592-18.082v-106.116c0-6.463 3.019-12.563 8.164-16.495 90.918-69.33 288.689-114.114 503.836-114.114s412.918 44.785 503.825 114.094c5.146 3.932 8.164 10.032 8.164 16.515v106.106c0.010 7.5-4.035 14.42-10.571 18.092zM1013.418 198.193c-6.525 3.672-14.524 3.548-20.966-0.363-99.622-60.647-283.719-98.315-480.453-98.315s-380.831 37.668-480.453 98.315c-6.411 3.911-14.42 4.056-20.956 0.363-6.546-3.662-10.592-10.582-10.592-18.072v-106.116c0-6.484 3.019-12.584 8.164-16.515 90.918-69.319 288.689-114.104 503.836-114.104s412.918 44.785 503.825 114.094c5.146 3.932 8.164 10.042 8.164 16.505v106.126c0.010 7.5-4.035 14.42-10.571 18.082z" />
<glyph unicode="&#xe961;" glyph-name="data-storage-discs-stack" d="M1003.233 572.286h-982.476c-11.458 0-20.757-9.299-20.757-20.757v-207.038c0-11.458 9.299-20.757 20.757-20.757h982.487c11.458 0 20.757 9.299 20.757 20.757v207.038c-0.010 11.458-9.299 20.757-20.767 20.757zM869.674 396.113h-278.14c-28.655 0-51.892 23.216-51.892 51.892 0 28.665 23.237 51.892 51.892 51.892h278.14c28.665 0 51.892-23.227 51.892-51.892 0-28.675-23.227-51.892-51.892-51.892zM1003.233 246.157h-982.476c-11.458 0-20.757-9.289-20.757-20.757v-207.027c0-11.458 9.299-20.757 20.757-20.757h982.487c11.458 0 20.757 9.299 20.757 20.757v207.027c-0.010 11.468-9.299 20.757-20.767 20.757zM869.674 74.385h-599.879c-28.655 0-51.892 23.216-51.892 51.892 0 28.665 23.237 51.892 51.892 51.892h599.879c28.665 0 51.892-23.227 51.892-51.892 0-28.675-23.227-51.892-51.892-51.892zM1003.233 898.384h-982.476c-11.458 0-20.757-9.299-20.757-20.757v-207.027c0-11.458 9.299-20.757 20.757-20.757h982.487c11.458 0 20.757 9.299 20.757 20.757v207.027c-0.010 11.468-9.299 20.757-20.767 20.757zM869.674 717.842h-406.831c-28.655 0-51.892 23.227-51.892 51.892s23.237 51.892 51.892 51.892h406.831c28.665 0 51.892-23.227 51.892-51.892s-23.227-51.892-51.892-51.892z" />
<glyph unicode="&#xe962;" glyph-name="design-button" d="M1007.832 908.8h-991.663c-8.936 0-16.168-7.243-16.168-16.168v-145.516c0-8.925 7.233-16.168 16.168-16.168h991.663c8.936 0 16.168 7.243 16.168 16.168v145.516c0 8.925-7.233 16.168-16.168 16.168zM1007.832 617.768h-565.895c-8.936 0-16.168-7.243-16.168-16.168v-113.179c0-8.925 7.233-16.168 16.168-16.168h565.895c8.936 0 16.168 7.243 16.168 16.168v113.179c0 8.925-7.233 16.168-16.168 16.168zM16.168 472.253h273.063c8.936 0 16.168 7.243 16.168 16.168v113.179c0 8.925-7.233 16.168-16.168 16.168h-273.063c-8.936 0-16.168-7.243-16.168-16.168v-113.179c0-8.925 7.233-16.168 16.168-16.168zM1007.832 326.737h-307.2c-8.936 0-16.168-7.243-16.168-16.168v-80.842c0-8.925 7.233-16.168 16.168-16.168h307.2c8.936 0 16.168 7.243 16.168 16.168v80.842c0 8.925-7.233 16.168-16.168 16.168zM16.168 213.558h531.758c8.936 0 16.168 7.243 16.168 16.168v80.842c0 8.925-7.233 16.168-16.168 16.168h-531.758c-8.936 0-16.168-7.243-16.168-16.168v-80.842c0-8.925 7.233-16.168 16.168-16.168zM810.221 68.042h-794.053c-8.936 0-16.168-7.243-16.168-16.168v-48.505c0-8.925 7.233-16.168 16.168-16.168h794.053c8.936 0 16.168 7.243 16.168 16.168v48.505c0 8.925-7.233 16.168-16.168 16.168zM1007.832 68.042h-95.275c-8.936 0-16.168-7.243-16.168-16.168v-48.505c0-8.925 7.233-16.168 16.168-16.168h95.275c8.936 0 16.168 7.243 16.168 16.168v48.505c0 8.925-7.233 16.168-16.168 16.168z" />
<glyph unicode="&#xe963;" glyph-name="design-structure-square-button" d="M1000.921 954.944h-977.842c-12.745 0-23.079-10.345-23.079-23.069v-275.973c0-12.756 10.334-23.079 23.079-23.079h977.842c12.745 0 23.079 10.323 23.079 23.079v275.983c0 12.724-10.334 23.058-23.079 23.058zM240.849 741.816c0-9.548-7.753-17.312-17.312-17.312h-115.385c-9.548 0-17.301 7.753-17.301 17.312v115.374c0 9.548 7.743 17.301 17.301 17.301h115.385c9.548 0 17.312-7.743 17.312-17.301v-115.374zM471.609 741.816c0-9.548-7.743-17.312-17.301-17.312h-115.385c-9.548 0-17.312 7.753-17.312 17.312v115.374c0 9.548 7.753 17.301 17.312 17.301h115.385c9.548 0 17.301-7.743 17.301-17.301v-115.374zM702.39 741.816c0-9.548-7.753-17.312-17.312-17.312h-115.385c-9.538 0-17.301 7.753-17.301 17.312v115.374c0 9.548 7.743 17.301 17.301 17.301h115.385c9.548 0 17.312-7.743 17.312-17.301v-115.374zM933.139 741.816c0-9.548-7.743-17.312-17.301-17.312h-115.374c-9.538 0-17.323 7.753-17.323 17.312v115.374c0 9.548 7.753 17.301 17.323 17.301h115.374c9.548 0 17.301-7.743 17.301-17.301v-115.374zM1000.921 548.516h-977.842c-12.745 0-23.079-10.323-23.079-23.079v-561.313c0-12.724 10.334-23.079 23.079-23.079h977.842c12.745 0 23.079 10.355 23.079 23.079v561.313c0 12.766-10.334 23.079-23.079 23.079zM90.851 421.522c0 9.559 7.743 17.323 17.301 17.323h115.385c9.548 0 17.312-7.753 17.312-17.323v-115.374c0-9.538-7.753-17.301-17.312-17.301h-115.385c-9.548 0-17.301 7.743-17.301 17.301v115.374zM471.609 52.298c0-9.559-7.743-17.323-17.301-17.323h-346.155c-9.548 0-17.301 7.743-17.301 17.323v115.364c0 9.548 7.743 17.312 17.301 17.312h346.166c9.548 0 17.301-7.743 17.301-17.312v-115.364h-0.011zM471.609 306.148c0-9.538-7.743-17.301-17.301-17.301h-115.385c-9.548 0-17.312 7.743-17.312 17.301v115.374c0 9.559 7.753 17.323 17.312 17.323h115.385c9.548 0 17.301-7.753 17.301-17.323v-115.374zM702.39 52.298c0-9.559-7.753-17.323-17.312-17.323h-115.385c-9.538 0-17.301 7.743-17.301 17.323v115.364c0 9.548 7.743 17.312 17.301 17.312h115.385c9.548 0 17.312-7.743 17.312-17.312v-115.364zM933.139 52.298c0-9.559-7.743-17.323-17.301-17.323h-115.374c-9.538 0-17.323 7.743-17.323 17.323v115.364c0 9.548 7.753 17.312 17.323 17.312h115.374c9.548 0 17.301-7.743 17.301-17.312v-115.364zM933.139 306.148c0-9.538-7.743-17.301-17.301-17.301h-346.145c-9.538 0-17.301 7.743-17.301 17.301v115.374c0 9.559 7.743 17.323 17.301 17.323h346.176c9.538 0 17.301-7.753 17.301-17.323v-115.374h-0.032z" />
</font>
</defs>
</svg>
