<?xml version="1.0" standalone="no"?>
<!DOCTYPE svg PUBLIC "-//W3C//DTD SVG 1.1//EN" "http://www.w3.org/Graphics/SVG/1.1/DTD/svg11.dtd" >
<svg xmlns="http://www.w3.org/2000/svg">
<metadata>Generated by IcoMoon</metadata>
<defs>
<font id="solid-arrow-collection" horiz-adv-x="1024">
<font-face units-per-em="1024" ascent="960" descent="-64" />
<missing-glyph horiz-adv-x="1024" />
<glyph unicode="&#x20;" horiz-adv-x="512" d="" />
<glyph unicode="&#xe900;" glyph-name="compress" d="M1024 896.66l-63.34 63.34-341.010-341.013v187.463h-89.577v-340.377h340.377v89.577h-187.46zM153.547 339.394h186.511l-340.057-340.054 63.34-63.34 341.007 341.007v-188.413h89.577v340.377h-340.377z" />
<glyph unicode="&#xe901;" glyph-name="compress-1" d="M1024 896.001l-63.999 63.999-277.334-277.334-151.61 151.61v-367.844h367.844l-152.234 152.234zM493.565 428.943h-367.841l151.61-151.613-277.334-277.331 63.999-63.999 277.334 277.331 152.234-152.234z" />
<glyph unicode="&#xe902;" glyph-name="crossroads" d="M856.378 615.621l-44.112-44.112 92.357-92.355h-361.47v361.468l92.357-92.357 44.112 44.114-167.62 167.62-167.622-167.62 44.112-44.114 92.276 92.278v-361.389h-361.387l92.355 92.355-44.112 44.112-167.622-167.62 167.622-167.622 44.112 44.112-92.276 92.278h361.308v-361.31l-92.276 92.276-44.112-44.112 167.622-167.622 167.62 167.622-44.112 44.112-92.357-92.355v361.389h361.391l-92.278-92.278 44.112-44.112 167.62 167.622z" />
<glyph unicode="&#xe903;" glyph-name="crossroads-1" d="M1024 448.001l-179.282 179.28v-148.087h-301.527v301.527h148.089l-179.282 179.28-179.28-179.28h148.087v-301.527h-301.527v148.087l-179.28-179.28 179.28-179.282v148.089h301.527v-301.527h-148.087l179.28-179.282 179.282 179.282h-148.089v301.527h301.527v-148.089z" />
<glyph unicode="&#xe904;" glyph-name="curve-arrow" d="M968.678 324.453l-93.783-93.783c29.232 240.050-102.9 480.358-336.97 577.315-89.196 36.946-186.669 49.939-281.899 37.619-92.32-11.962-180.853-47.341-256.026-102.321l46.183-63.15c134.933 98.681 307.571 119.46 461.803 55.569 222.744-92.265 337.974-335.771 276.12-562.541l-151.293 151.293-55.322-55.322 223.253-223.253 223.253 223.253-55.319 55.322z" />
<glyph unicode="&#xe905;" glyph-name="curve-arrow-1" d="M1024 626.871l-223.253 223.253-223.253-223.253 55.322-55.322 151.29 151.293c61.857-226.771-53.373-470.276-276.117-562.541-154.232-63.886-326.865-43.114-461.803 55.569l-46.186-63.153c75.173-54.977 163.706-90.356 256.029-102.319 23.336-3.023 46.802-4.522 70.252-4.522 72.244 0 144.309 14.25 211.645 42.141 234.067 96.957 366.2 337.265 336.97 577.315l93.783-93.783 55.322 55.322z" />
<glyph unicode="&#xe906;" glyph-name="curve-arrow-2" d="M871.982 473.925c-96.954 234.070-337.262 366.202-577.312 336.97l93.783 93.783-55.324 55.322-223.253-223.253 223.255-223.253 55.322 55.319-151.29 151.293c226.768 61.86 470.276-53.376 562.539-276.12 63.886-154.234 43.111-326.87-55.569-461.803l63.15-46.183c54.977 75.173 90.359 163.706 102.319 256.029 12.335 95.223-0.673 192.701-37.619 281.897z" />
<glyph unicode="&#xe907;" glyph-name="curve-arrow-3" d="M690.871 960l-55.322-55.322 93.788-93.788c-240.050 29.227-480.363-102.898-577.32-336.965-36.946-89.196-49.952-186.674-37.616-281.899 11.96-92.32 47.341-180.856 102.319-256.029l63.15 46.183c-98.681 134.933-119.455 307.571-55.569 461.803 92.263 222.741 335.765 337.985 562.539 276.12l-151.29-151.29 55.322-55.322 223.255 223.253-223.255 223.255z" />
<glyph unicode="&#xe908;" glyph-name="diagonal-arrow" d="M1024 897.459l-62.538 62.541-873.018-873.015v393.549h-88.443v-544.531h544.534v88.443h-393.552z" />
<glyph unicode="&#xe909;" glyph-name="diagonal-arrow-1" d="M1023.997-1.459l-873.015 873.015h393.552v88.443h-544.534v-544.534h88.443v393.552l873.015-873.018z" />
<glyph unicode="&#xe90a;" glyph-name="diagonal-arrow-2" d="M935.554 480.534v-393.549l-873.015 873.015-62.538-62.538 873.015-873.018h-393.549v-88.443h544.531v544.534z" />
<glyph unicode="&#xe90b;" glyph-name="diagonal-arrow-3" d="M479.465 960v-88.444h393.553l-873.018-873.018 62.538-62.538 873.018 873.018v-393.553h88.444v544.535z" />
<glyph unicode="&#xe90c;" glyph-name="diagonal-arrow-4" d="M1024 897.497l-62.503 62.503-708.274-708.274-253.223 253.223v-568.946h568.946l-253.22 253.22z" />
<glyph unicode="&#xe90d;" glyph-name="diagonal-arrow-5" d="M1024-1.497l-708.274 708.274 253.223 253.223h-568.949v-568.949l253.223 253.223 708.274-708.274z" />
<glyph unicode="&#xe90e;" glyph-name="diagonal-arrow-6" d="M770.777 251.726l-708.274 708.274-62.503-62.503 708.274-708.274-253.223-253.223h568.949v568.949z" />
<glyph unicode="&#xe90f;" glyph-name="diagonal-arrow-7" d="M1024 960h-568.95l253.224-253.224-708.273-708.273 62.503-62.503 708.273 708.273 253.224-253.224z" />
<glyph unicode="&#xe910;" glyph-name="diagonal-arrow-8" d="M1023.997 897.462l-62.538 62.538-873.015-873.018v143.399h-88.443v-294.381l294.381 0.003v88.443h-143.396z" />
<glyph unicode="&#xe911;" glyph-name="diagonal-arrow-9" d="M1023.997-1.462l-873.012 873.018h143.396v88.443l-294.381-0.003v-294.378h88.443v143.399l873.015-873.018z" />
<glyph unicode="&#xe912;" glyph-name="diagonal-arrow-10" d="M729.619-64l294.381 0.003-0.003 294.378h-88.443v-143.396l-873.015 873.015-62.538-62.538 873.015-873.015-143.396-0.003z" />
<glyph unicode="&#xe913;" glyph-name="diagonal-arrow-11" d="M1024 665.619l-0.003 294.381-294.378-0.003v-88.443l143.399 0.003-873.018-873.018 62.538-62.538 873.015 873.018 0.003-143.399z" />
<glyph unicode="&#xe914;" glyph-name="diagonal-arrow-12" d="M1024 897.462l-62.538 62.538-833.853-833.85-127.609 127.609 0.006-317.755 317.747 0.006-127.606 127.603z" />
<glyph unicode="&#xe915;" glyph-name="diagonal-arrow-13" d="M1023.997-1.462l-833.847 833.853 127.609 127.609-317.758-0.006 0.006-317.747 127.606 127.603 833.847-833.85z" />
<glyph unicode="&#xe916;" glyph-name="diagonal-arrow-14" d="M1023.997-63.994l-0.003 317.747-127.603-127.606-833.853 833.853-62.538-62.538 833.853-833.853-127.609-127.609z" />
<glyph unicode="&#xe917;" glyph-name="diagonal-arrow-15" d="M1024 642.244l-0.006 317.756-317.747-0.006 127.606-127.603-833.853-833.853 62.538-62.538 833.853 833.853z" />
<glyph unicode="&#xe918;" glyph-name="double-arrow" d="M543.232 55.457v785.086l92.278-92.278 44.112 44.115-167.622 167.62-167.62-167.62 44.112-44.115 92.355 92.355v-785.242l-92.355 92.357-44.112-44.115 167.62-167.62 167.622 167.62-44.112 44.115z" />
<glyph unicode="&#xe919;" glyph-name="double-arrow-1" d="M856.378 615.622l-44.112-44.115 92.357-92.355h-785.244l92.355 92.355-44.112 44.115-167.62-167.622 167.62-167.622 44.112 44.115-92.276 92.276h785.086l-92.278-92.276 44.112-44.115 167.622 167.622z" />
<glyph unicode="&#xe91a;" glyph-name="double-arrow-2" d="M543.191 780.72h148.089l-179.282 179.28-179.28-179.28h148.087v-665.439h-148.087l179.28-179.282 179.282 179.282h-148.089z" />
<glyph unicode="&#xe91b;" glyph-name="double-arrow-3" d="M1024 448l-179.28 179.28v-148.087h-665.44v148.087l-179.28-179.28 179.28-179.282v148.090h665.44v-148.090z" />
<glyph unicode="&#xe91c;" glyph-name="double-arrow-4" d="M463.812-17.327v930.655l-463.812-465.327zM560.188 913.327v-930.655l463.812 465.327z" />
<glyph unicode="&#xe91d;" glyph-name="double-arrow-5" d="M512 960l-465.327-463.812h930.655zM512-64l465.327 463.812h-930.655z" />
<glyph unicode="&#xe91e;" glyph-name="down-arrow" d="M747.229 262.458l-202.444-202.446v899.988h-64.509v-901.046l-203.504 203.504-45.614-45.616 280.844-280.842 280.842 280.844z" />
<glyph unicode="&#xe91f;" glyph-name="down-arrow-1" d="M544.236 229.43v730.57h-64.471v-730.57h-261.192l293.428-293.43 293.428 293.43z" />
<glyph unicode="&#xe920;" glyph-name="down-arrow-2" d="M618.211 133.438l-73.955-73.955v900.517h-64.509v-900.517l-73.957 73.955-45.614-45.612 151.826-151.826 151.824 151.826z" />
<glyph unicode="&#xe921;" glyph-name="down-arrow-3" d="M544.256 99.881v860.119h-64.509v-860.119h-131.628l163.885-163.881 163.879 163.881z" />
<glyph unicode="&#xe922;" glyph-name="down-arrow-4" d="M0 703.166l512.001-510.334 511.999 510.334z" />
<glyph unicode="&#xe923;" glyph-name="down-chevron" d="M978.405 670.395l-466.407-349.803-466.404 349.803-45.595-60.793 511.999-383.999 512.001 383.999z" />
<glyph unicode="&#xe924;" glyph-name="down-chevron-1" d="M970.771 729.867l-458.773-457.277-458.77 457.277-53.229-53.402 511.999-510.332 512.001 510.332z" />
<glyph unicode="&#xe925;" glyph-name="down-chevron-2" d="M511.999 148.392l-458.77 457.277-53.229-53.402 511.999-510.332 512.001 510.332-53.229 53.402zM1024 800.664l-53.229 53.402-458.773-457.277-458.77 457.277-53.229-53.402 511.999-510.332z" />
<glyph unicode="&#xe926;" glyph-name="down-chevron-3" d="M0 960v-1024h1024v1024h-1024zM512 268.548l-288.271 287.332 47.662 47.82 240.608-239.825 240.608 239.825 47.662-47.82-288.271-287.332z" />
<glyph unicode="&#xe927;" glyph-name="down-chevron-4" d="M512 960c-282.77 0-512-229.23-512-512s229.23-512 512-512 512 229.23 512 512-229.23 512-512 512zM512 223.737l-288.271 287.332 47.662 47.82 240.608-239.825 240.608 239.825 47.662-47.82-288.271-287.332z" />
<glyph unicode="&#xe928;" glyph-name="exchange" d="M307.509 59.699v897.7h-64.345v-898.755l-95.745 95.743-45.498-45.498 172.888-172.888 172.886 172.888-45.498 45.498zM922.078 787.114l-172.886 172.886-172.888-172.886 45.498-45.5 95.218 95.218v-898.227h64.345v898.227l95.215-95.218z" />
<glyph unicode="&#xe929;" glyph-name="exchange-1" d="M218.387 557.801l-94.688 94.69h897.697v64.345h-898.753l95.743 95.743-45.498 45.5-172.888-172.888 172.888-172.888zM851.112 383.697l-45.498-45.498 95.215-95.218h-898.227v-64.345h898.227l-95.215-95.215 45.498-45.498 172.888 172.886z" />
<glyph unicode="&#xe92a;" glyph-name="exchange-2" d="M105.941 279.862c-44.91 108.426-44.913 227.851 0 336.276 37.734 91.094 103.377 165.249 187.698 213.267v-181.249h72.495v275.468h-275.47v-72.495h105.734c-176.404-138.136-247.265-382.141-157.434-599.012 34.234-82.649 89.579-155.040 160.054-209.35 68.324-52.653 149.516-87.479 234.791-100.712l11.118 71.639c-153.068 23.752-279.789 123.253-338.985 266.167zM984.761 252.118c52.319 126.315 52.319 265.447 0 391.761-34.234 82.649-89.579 155.040-160.054 209.348-68.326 52.655-149.518 87.482-234.793 100.714l-11.116-71.639c153.065-23.752 279.786-123.253 338.983-266.167 44.91-108.426 44.91-227.851 0-336.276-37.731-91.094-103.377-165.249-187.696-213.267v181.249h-72.495v-275.468h275.468v72.495h-105.419c68.756 53.687 122.833 124.469 157.123 207.25z" />
<glyph unicode="&#xe92b;" glyph-name="exchange-3" d="M307.509 957.398h-64.345v-836.728l-153.171 0.498 185.165-185.168 183.964 183.966-151.614 0.493zM934.007 774.832l-185.165 185.168-183.964-183.966 152.139-0.495v-836.934h64.345v836.726z" />
<glyph unicode="&#xe92c;" glyph-name="exchange-4" d="M184.913 652.356h836.486v64.345h-836.486v153.448l-184.913-185.518 184.913-184.31zM1024 211.019l-183.967 183.967-0.493-152.142h-836.938v-64.345h836.728l-0.495-152.646z" />
<glyph unicode="&#xe92d;" glyph-name="exchange-5" d="M105.939 279.862c-44.91 108.426-44.913 227.851 0 336.276 25.733 62.126 64.467 116.359 113.237 159.815l147.068-147.068v294.628h-294.631l96.37-96.37c-155.363-141.186-213.859-370.206-129.019-575.026 34.234-82.649 89.579-155.040 160.054-209.35 68.326-52.653 149.516-87.479 234.791-100.712l11.118 71.639c-153.068 23.752-279.791 123.256-338.988 266.167zM984.759 252.118c52.322 126.315 52.322 265.447 0 391.761-34.234 82.649-89.582 155.040-160.054 209.348-68.326 52.655-149.516 87.482-234.791 100.714l-11.118-71.639c153.065-23.752 279.789-123.253 338.985-266.167 44.913-108.426 44.913-227.851 0-336.276-25.733-62.126-64.467-116.359-113.234-159.815l-147.068 147.068v-294.628h294.628l-96.179 96.179c55.374 50.159 99.393 112.386 128.83 183.455z" />
<glyph unicode="&#xe92e;" glyph-name="expand" d="M1024 624.757v335.243h-335.24v-88.226h184.709l-361.469-361.469-361.466 361.469h184.709v88.226h-335.243v-335.243h88.226v184.553l361.39-361.39-361.39-361.387v184.709h-88.226v-335.243h335.243v88.226h-184.556l361.314 361.311 361.314-361.311h-184.553v-88.226h335.24v335.243h-88.226v-184.709l-361.39 361.387 361.39 361.39v-184.553z" />
<glyph unicode="&#xe92f;" glyph-name="expand-1" d="M419.444 417.148l-332.185-332.185v182.608h-87.259v-331.571h331.571v87.259h-182.613l332.188 332.188zM692.429 960v-87.259h182.608l-332.188-332.19 61.701-61.698 332.19 332.188v-182.611h87.259v331.571z" />
<glyph unicode="&#xe930;" glyph-name="expand-2" d="M418.728 416.5l-270.335-270.332-148.393 148.393v-358.561h358.564l-147.787 147.784 270.335 270.335zM1024 960h-358.561l148.393-148.393-270.335-270.335 62.384-62.384 270.335 270.335 147.784-147.784z" />
<glyph unicode="&#xe931;" glyph-name="full-screen" d="M875.913 749.526l148.087-148.087v358.561h-358.561l148.090-148.090-301.529-301.526-301.526 301.526 148.087 148.090h-358.561v-358.561l148.090 148.087 301.526-301.526-301.526-301.529-148.090 148.090v-358.561h358.561l-148.087 148.090 301.526 301.526 301.529-301.526-148.090-148.090h358.561v358.561l-148.087-148.090-301.529 301.529z" />
<glyph unicode="&#xe932;" glyph-name="left-arrow" d="M1024 480.253h-900.515l202.973 202.975-45.614 45.614-280.844-280.842 280.844-280.846 45.614 45.616-202.973 202.973h900.515z" />
<glyph unicode="&#xe933;" glyph-name="left-arrow-1" d="M1024 480.235h-730.572v261.195l-293.428-293.43 293.428-293.43v261.195h730.572z" />
<glyph unicode="&#xe934;" glyph-name="left-arrow-2" d="M957.484 960h-80.214v-754.034h-580.237v191.070l-230.517-230.519 230.517-230.517v189.752h660.451z" />
<glyph unicode="&#xe935;" glyph-name="left-arrow-3" d="M297.033 770.248v189.752l-230.517-230.517 230.517-230.519v191.070h580.237v-754.034h80.214v834.248z" />
<glyph unicode="&#xe936;" glyph-name="left-arrow-4" d="M1024 480.256h-900.517l73.955 73.955-45.614 45.614-151.824-151.824 151.824-151.826 45.614 45.614-73.955 73.957h900.517z" />
<glyph unicode="&#xe937;" glyph-name="left-arrow-5" d="M1024 480.253h-860.121v131.628l-163.879-163.885 163.879-163.879v131.626h860.121z" />
<glyph unicode="&#xe938;" glyph-name="left-arrow-6" d="M256.834 448l510.332-512v1024z" />
<glyph unicode="&#xe939;" glyph-name="left-chevron" d="M734.395 914.405l-60.793 45.595-383.998-512 383.998-512 60.793 45.595-349.802 466.405z" />
<glyph unicode="&#xe93a;" glyph-name="left-chevron-1" d="M793.867 906.774l-53.402 53.226-510.334-512 510.334-512 53.402 53.226-457.278 458.774z" />
<glyph unicode="&#xe93b;" glyph-name="left-chevron-2" d="M669.668 906.774l-53.402 53.226-510.334-512 510.334-512 53.402 53.226-457.278 458.774zM918.065 906.774l-53.402 53.226-510.334-512 510.334-512 53.402 53.226-457.278 458.774z" />
<glyph unicode="&#xe93c;" glyph-name="left-chevron-3" d="M0 960v-1024h1024v1024h-1024zM667.7 207.392l-47.82-47.662-287.334 288.271 287.334 288.271 47.82-47.662-239.825-240.608 239.825-240.608z" />
<glyph unicode="&#xe93d;" glyph-name="left-chevron-4" d="M512 960c-282.77 0-512-229.23-512-512s229.23-512 512-512 512 229.23 512 512-229.23 512-512 512zM622.889 207.392l-47.82-47.662-287.332 288.271 287.332 288.271 47.82-47.662-239.825-240.608 239.825-240.608z" />
<glyph unicode="&#xe93e;" glyph-name="redo" d="M985.024 662.059l-66.996-27.749c44.922-108.454 44.922-227.912 0-336.366s-129.392-192.924-237.846-237.846c-223.892-92.741-481.479 13.961-574.212 237.846-85.521 206.46-1.438 441.584 187.746 549.657v-181.266h72.514v275.541h-275.541v-72.514h105.762c-176.451-138.173-247.329-382.243-157.476-599.172 81.588-196.972 272.667-316.084 473.691-316.069 65.166 0.005 131.412 12.53 195.266 38.976 260.828 108.041 385.129 408.136 277.093 668.962z" />
<glyph unicode="&#xe93f;" glyph-name="redo-1" d="M984.761 662.193l-66.978-27.741c44.911-108.426 44.911-227.854 0-336.277-44.911-108.426-129.357-192.873-237.783-237.783-54.221-22.457-111.168-33.686-168.137-33.684-56.954 0.002-113.931 11.229-168.137 33.684-108.426 44.911-192.873 129.357-237.783 237.783-73.302 176.962-21.949 374.963 113.375 495.947l146.925-146.925v294.629h-294.629l96.367-96.367c-155.361-141.186-213.858-370.207-129.019-575.027 52.322-126.315 150.702-224.695 277.017-277.017 63.16-26.161 129.522-39.241 195.884-39.241s132.724 13.080 195.881 39.241c126.315 52.322 224.695 150.702 277.020 277.017 52.317 126.315 52.317 265.447-0.002 391.762z" />
<glyph unicode="&#xe940;" glyph-name="right-arrow" d="M743.156 728.843l-45.612-45.614 202.973-202.975h-900.517v-64.509h900.517l-202.973-202.973 45.612-45.614 280.844 280.844z" />
<glyph unicode="&#xe941;" glyph-name="right-arrow-1" d="M1024 447.999l-293.428 293.43v-261.195h-730.572v-64.471h730.572v-261.195z" />
<glyph unicode="&#xe942;" glyph-name="right-arrow-2" d="M957.484 729.483l-230.517 230.517v-189.752h-660.451v-834.248h80.214v754.034h580.237v-191.070z" />
<glyph unicode="&#xe943;" glyph-name="right-arrow-3" d="M957.484 166.517l-230.517 230.519v-191.070h-580.237v754.034h-80.214v-834.248h660.451v-189.752z" />
<glyph unicode="&#xe944;" glyph-name="right-arrow-4" d="M872.174 599.825l-45.612-45.614 73.955-73.955h-900.517v-64.509h900.517l-73.955-73.957 45.612-45.614 151.826 151.826z" />
<glyph unicode="&#xe945;" glyph-name="right-arrow-5" d="M1024 448.003l-163.881 163.879v-131.626h-860.119v-64.509h860.119v-131.628z" />
<glyph unicode="&#xe946;" glyph-name="right-arrow-6" d="M256.834 960v-1024l510.332 512z" />
<glyph unicode="&#xe947;" glyph-name="right-chevron" d="M350.397 960l-60.793-45.595 349.802-466.405-349.802-466.405 60.793-45.595 383.998 512z" />
<glyph unicode="&#xe948;" glyph-name="right-chevron-1" d="M283.533 960l-53.402-53.226 457.281-458.774-457.281-458.774 53.402-53.226 510.334 512z" />
<glyph unicode="&#xe949;" glyph-name="right-chevron-2" d="M407.732 960l-53.402-53.226 457.281-458.774-457.281-458.774 53.402-53.226 510.334 512zM159.334 960l-53.402-53.226 457.281-458.774-457.281-458.774 53.402-53.226 510.334 512z" />
<glyph unicode="&#xe94a;" glyph-name="right-chevron-3" d="M0 960v-1024h1024v1024h-1024zM404.12 159.729l-47.82 47.662 239.825 240.608-239.825 240.608 47.82 47.662 287.332-288.271-287.332-288.271z" />
<glyph unicode="&#xe94b;" glyph-name="right-chevron-4" d="M512 960c-282.77 0-512-229.23-512-512s229.23-512 512-512 512 229.23 512 512-229.23 512-512 512zM448.931 159.729l-47.82 47.662 239.825 240.608-239.825 240.608 47.82 47.662 287.332-288.271-287.332-288.271z" />
<glyph unicode="&#xe94c;" glyph-name="turn-left" d="M964.102 960h-81.406v-765.236h-667.638l121.132 121.129-57.562 57.562-218.729-218.726 218.729-218.729 57.562 57.562-119.797 119.797h747.709z" />
<glyph unicode="&#xe94d;" glyph-name="turn-left-1" d="M216.393 782.644l119.797 119.794-57.562 57.562-218.729-218.726 218.729-218.729 57.562 57.562-121.132 121.132h667.638v-765.238h81.406v846.644z" />
<glyph unicode="&#xe94e;" glyph-name="turn-right" d="M745.373 960l-57.562-57.562 119.797-119.794h-747.709v-846.644h81.406v765.238h667.638l-121.132-121.132 57.562-57.562 218.729 218.729z" />
<glyph unicode="&#xe94f;" glyph-name="turn-right-1" d="M745.373 373.455l-57.562-57.562 121.132-121.129h-667.638v765.236h-81.406v-846.641h747.709l-119.797-119.797 57.562-57.562 218.729 218.729z" />
<glyph unicode="&#xe950;" glyph-name="undo" d="M827.552 869.362h105.762v72.514h-275.544v-275.541h72.514v181.266c189.184-108.073 273.267-343.197 187.746-549.659-70.032-169.076-234.049-271.319-406.601-271.304-55.937 0.005-112.8 10.756-167.611 33.458-108.454 44.925-192.924 129.394-237.846 237.849s-44.922 227.912 0 336.366l-66.996 27.749c-108.036-260.826 16.265-560.918 277.091-668.957 63.87-26.456 130.085-38.979 195.266-38.976 201.004 0.002 392.11 119.112 473.691 316.069 89.857 216.923 18.977 460.994-157.472 599.167z" />
<glyph unicode="&#xe951;" glyph-name="undo-1" d="M856.020 845.458l96.367 96.367h-294.626v-294.629l146.925 146.925c135.324-120.984 186.677-318.987 113.377-495.95-44.911-108.426-129.357-192.873-237.783-237.783-108.419-44.911-227.847-44.911-336.275 0-108.426 44.911-192.873 129.357-237.783 237.783s-44.911 227.851 0 336.277l-66.978 27.741c-52.32-126.315-52.32-265.447 0-391.762 52.322-126.315 150.702-224.695 277.020-277.017 63.167-26.163 129.512-39.244 195.881-39.241 66.355 0.002 132.731 13.083 195.884 39.241 126.313 52.322 224.693 150.702 277.017 277.017 84.831 204.822 26.335 433.843-129.026 575.029z" />
<glyph unicode="&#xe952;" glyph-name="up-arrow" d="M792.843 679.158l-280.842 280.842-280.844-280.844 45.614-45.614 203.504 203.504v-901.046h64.509v899.988l202.444-202.446z" />
<glyph unicode="&#xe953;" glyph-name="up-arrow-1" d="M805.428 666.57l-293.428 293.43-293.428-293.43h261.192v-730.57h64.471v730.57z" />
<glyph unicode="&#xe954;" glyph-name="up-arrow-2" d="M663.825 808.174l-151.824 151.826-151.826-151.826 45.614-45.614 73.957 73.955v-900.515h64.509v900.515l73.955-73.955z" />
<glyph unicode="&#xe955;" glyph-name="up-arrow-3" d="M675.882 796.119l-163.876 163.881-163.887-163.881h131.628v-860.119h64.509v860.119z" />
<glyph unicode="&#xe956;" glyph-name="up-arrow-4" d="M512.001 703.166l-512.001-510.334h1024z" />
<glyph unicode="&#xe957;" glyph-name="up-chevron" d="M512 670.395l-512-383.998 45.595-60.793 466.405 349.802 466.405-349.802 45.595 60.793z" />
<glyph unicode="&#xe958;" glyph-name="up-chevron-1" d="M512 729.867l-512-510.331 53.229-53.402 458.771 457.278 458.774-457.278 53.226 53.402z" />
<glyph unicode="&#xe959;" glyph-name="up-chevron-2" d="M511.999 747.611l458.773-457.28 53.229 53.402-512.001 510.332-511.999-510.332 53.229-53.402zM0 95.336l53.229-53.402 458.77 457.28 458.773-457.28 53.229 53.402-512.001 510.332z" />
<glyph unicode="&#xe95a;" glyph-name="up-chevron-3" d="M0 960v-1024h1024v1024h-1024zM752.608 292.3l-240.608 239.825-240.608-239.825-47.664 47.82 288.273 287.332 288.271-287.332-47.662-47.82z" />
<glyph unicode="&#xe95b;" glyph-name="up-chevron-4" d="M512 960c-282.77 0-512-229.23-512-512s229.23-512 512-512 512 229.23 512 512-229.23 512-512 512zM752.608 337.111l-240.608 239.825-240.608-239.825-47.662 47.82 288.271 287.332 288.271-287.334-47.662-47.817z" />
</font>
</defs>
</svg>
